<?xml version="1.0" standalone="no"?>
<!DOCTYPE svg PUBLIC "-//W3C//DTD SVG 20010904//EN"
 "http://www.w3.org/TR/2001/REC-SVG-20010904/DTD/svg10.dtd">
<svg version="1.0" xmlns="http://www.w3.org/2000/svg"
 width="512.000000pt" height="512.000000pt" viewBox="0 0 512.000000 512.000000"
 preserveAspectRatio="xMidYMid meet">
<metadata>
Created by potrace 1.16, written by Peter Selinger 2001-2019
</metadata>
<g transform="translate(0.000000,512.000000) scale(0.100000,-0.100000)"
fill="#000000" stroke="none">
<path d="M0 5071 c0 -51 0 -51 33 -51 34 0 57 -15 57 -37 0 -15 -27 -18 -32
-4 -1 5 -15 12 -29 16 l-27 7 -1 -77 c-1 -77 -1 -77 24 -73 14 3 30 -1 36 -8
9 -11 5 -14 -25 -14 l-36 0 0 -154 c0 -114 3 -156 12 -159 10 -4 10 -6 1 -6
-21 -1 -17 -150 4 -173 15 -17 15 -18 0 -18 -11 0 -17 -8 -17 -21 0 -20 4 -21
46 -15 34 4 45 3 41 -7 -2 -6 -13 -11 -23 -10 -21 3 -64 -16 -64 -28 0 -13 25
-16 50 -6 25 10 144 16 167 9 6 -2 9 -10 7 -17 -4 -9 5 -15 28 -17 38 -3 36
-23 -2 -23 -34 -1 -27 -18 12 -31 37 -12 49 -34 20 -34 -11 0 -22 3 -24 8 -1
4 -19 15 -38 25 -75 38 -95 50 -101 59 -3 5 -31 6 -62 2 l-57 -7 0 -51 c0 -29
5 -57 12 -64 9 -9 9 -12 0 -12 -8 0 -12 -28 -12 -95 0 -57 4 -95 10 -95 14 0
12 -27 -3 -33 -6 -3 5 -6 25 -6 54 -1 61 22 13 43 -6 3 -6 8 2 13 9 7 53 8
135 4 16 -1 48 -47 48 -70 0 -5 -10 -11 -22 -13 -31 -4 -29 -22 2 -26 32 -5
56 -27 69 -63 12 -35 0 -45 -24 -19 -10 11 -24 20 -32 20 -7 0 -13 4 -13 9 0
14 -32 23 -43 12 -6 -6 0 -14 14 -21 51 -26 79 -90 40 -90 -35 0 -53 11 -41
25 8 9 2 17 -24 29 -19 9 -36 21 -38 28 -2 6 -9 8 -16 4 -13 -8 3 -44 26 -59
6 -4 12 -14 12 -21 0 -8 14 -16 30 -19 20 -4 30 -13 30 -24 0 -21 50 -47 63
-34 5 5 1 15 -8 25 -23 23 -9 40 18 21 12 -8 29 -15 39 -15 10 0 18 -4 18 -10
0 -5 -12 -10 -26 -10 -19 0 -25 -4 -22 -17 4 -21 44 -19 69 3 8 8 21 14 27 14
20 0 13 -31 -7 -37 -11 -3 -21 -13 -24 -24 -7 -27 -67 -27 -74 1 -3 11 -12 20
-19 20 -8 0 -14 5 -14 10 0 6 -8 10 -18 10 -10 0 -22 4 -28 10 -14 14 -38 -5
-30 -25 4 -13 13 -15 36 -10 19 4 30 3 30 -4 0 -6 -9 -11 -20 -11 -27 0 -25
-24 3 -43 l22 -16 -26 0 c-15 -1 -32 5 -38 13 -7 8 -32 24 -57 35 -24 12 -44
25 -44 30 0 17 20 23 34 12 17 -15 39 9 26 28 -4 8 -6 19 -4 26 7 18 -31 54
-65 61 -17 4 -31 10 -31 14 0 4 -7 10 -15 14 -13 4 -15 -9 -15 -85 0 -86 1
-90 20 -84 14 5 20 2 20 -9 0 -9 -9 -16 -20 -16 -16 0 -20 -7 -20 -37 0 -31 2
-34 13 -21 16 21 74 28 89 11 6 -7 8 -16 5 -19 -5 -6 -47 -12 -89 -13 -15 -1
-16 -20 -17 -177 -1 -187 3 -204 49 -204 12 0 18 -4 15 -10 -4 -6 -1 -17 5
-25 11 -13 6 -15 -28 -15 l-40 0 -1 -60 c-1 -60 0 -60 25 -54 15 4 29 2 33 -4
4 -6 27 -12 51 -14 l45 -3 3 38 c4 44 -12 54 -59 38 -18 -6 -35 -8 -38 -5 -10
10 62 65 92 71 47 10 63 73 19 73 -26 0 -82 20 -82 30 0 4 12 11 27 15 26 6
27 8 10 20 -12 9 -15 15 -7 20 6 4 9 12 8 17 -8 23 45 61 91 66 61 7 94 28 88
59 -4 21 -1 23 34 23 30 0 42 6 58 29 l21 29 -62 -1 -63 -2 0 34 c0 31 4 36
33 43 25 7 32 13 28 25 -5 12 -2 14 16 8 13 -5 41 -8 64 -9 22 -1 47 -6 56
-13 19 -17 88 -5 88 14 0 13 13 14 80 8 74 -7 80 -6 80 12 0 10 9 24 20 31 27
17 25 32 -5 32 -35 0 -31 13 12 36 20 10 38 25 41 33 3 8 0 11 -6 7 -6 -3 -48
-9 -94 -12 -121 -8 -169 -13 -205 -20 -33 -6 -45 7 -21 22 16 10 32 13 158 24
59 5 106 13 108 20 2 6 17 8 38 4 34 -6 34 -6 34 31 0 26 -4 36 -13 32 -7 -3
-22 2 -32 10 -19 14 -19 15 -2 28 26 19 14 55 -19 55 -13 0 -24 4 -24 9 0 5
-12 12 -27 16 -15 3 -31 11 -35 17 -3 6 -20 11 -37 11 -17 0 -31 4 -31 8 0 13
31 19 50 9 10 -5 32 -7 48 -4 25 5 31 2 37 -15 4 -12 15 -21 26 -21 21 0 19 9
-10 44 -15 18 -15 19 13 12 22 -5 34 -2 51 14 33 31 73 19 124 -36 33 -34 49
-44 74 -44 18 -1 50 -9 72 -20 22 -11 55 -19 73 -20 22 0 32 -5 32 -15 0 -22
-29 -30 -43 -12 -14 17 -97 32 -97 17 0 -5 27 -38 60 -72 33 -35 72 -75 86
-90 32 -35 57 -37 49 -5 -5 18 1 26 29 41 23 12 33 23 29 33 -3 8 0 19 8 24
11 7 11 9 -2 9 -9 0 -22 7 -29 15 -7 8 -21 15 -31 15 -11 0 -19 7 -19 15 0 8
5 15 10 15 6 0 10 7 10 15 0 9 -9 15 -25 15 -14 0 -25 5 -25 11 0 21 29 39 64
39 20 0 36 5 36 11 0 7 -10 9 -24 5 -32 -8 -43 10 -21 34 15 17 15 19 -5 25
-12 4 -27 2 -33 -4 -6 -6 -26 -11 -44 -11 -29 0 -33 3 -33 25 0 25 1 26 50 19
33 -4 50 -3 50 4 0 6 -9 14 -20 17 -12 4 -20 15 -20 29 0 34 12 40 31 14 l17
-22 26 25 c31 29 33 39 5 39 -15 0 -19 5 -14 19 4 15 -1 20 -27 24 -39 6 -45
2 -29 -17 15 -18 -5 -34 -22 -17 -11 11 -77 16 -77 5 0 -3 10 -14 23 -25 22
-19 22 -19 3 -34 -11 -8 -26 -15 -33 -15 -43 0 -120 -53 -136 -93 -3 -9 -11
-17 -17 -17 -14 0 -13 43 2 75 15 32 5 41 -29 26 -22 -10 -29 -9 -41 3 -14 14
-14 16 1 22 9 3 17 11 17 16 0 7 -20 8 -54 4 -64 -9 -91 9 -82 55 6 30 -8 40
-56 44 -16 2 -40 10 -54 20 -24 15 -24 18 -10 34 22 25 20 48 -6 62 l-22 12
24 9 c38 14 8 26 -51 20 -32 -3 -49 -1 -49 7 0 14 2 14 141 15 82 1 121 5 133
15 19 16 12 31 -15 31 -11 0 -17 5 -14 10 3 6 27 10 52 10 28 0 63 9 93 24 26
13 66 27 89 31 24 4 41 12 41 20 0 13 -20 18 -109 27 -14 2 -26 8 -28 15 -6
17 70 35 149 34 69 -1 91 12 40 23 -48 11 -132 65 -132 85 0 10 6 21 13 24 9
3 12 16 9 36 -4 27 -1 31 20 31 13 0 29 -5 35 -11 16 -16 35 -1 28 22 -4 11
-2 19 5 19 6 0 9 8 6 18 -6 19 14 30 96 53 43 12 46 15 33 29 -22 25 -18 33
13 27 16 -3 33 0 43 9 10 9 26 12 47 8 27 -6 29 -8 19 -26 -10 -16 -9 -21 5
-29 16 -9 16 -12 -2 -41 -14 -23 -16 -35 -9 -45 8 -9 0 -23 -32 -53 -42 -39
-69 -51 -69 -30 0 6 -10 10 -21 10 -17 0 -19 -3 -10 -14 20 -24 -21 -25 -71
-1 l-47 23 -22 -24 -21 -23 22 -30 c21 -30 70 -44 70 -21 0 31 60 -8 63 -41 1
-12 9 -24 19 -27 23 -6 23 -14 -2 -35 -11 -9 -20 -28 -20 -42 0 -23 -3 -25
-27 -18 -40 11 -82 10 -85 -2 -2 -5 9 -11 25 -13 24 -3 26 -6 21 -30 -4 -15
-11 -33 -17 -39 -7 -10 -4 -13 12 -13 11 0 21 -4 21 -10 0 -5 12 -10 28 -10
26 1 26 1 8 15 -17 13 -17 15 -3 21 10 3 17 12 17 20 0 22 37 16 55 -8 14 -21
14 -23 -2 -26 -41 -7 -44 -11 -23 -32 24 -24 28 -24 49 -6 9 7 33 16 53 19 33
5 36 4 27 -12 -13 -20 -74 -61 -91 -61 -7 0 -31 -18 -52 -40 -35 -35 -37 -40
-18 -40 12 0 26 9 32 20 6 11 20 20 30 20 24 0 25 -4 3 -37 -17 -26 -17 -27 0
-20 10 4 21 7 23 7 2 0 4 7 4 15 0 8 5 15 10 15 6 0 8 10 4 24 -9 36 47 75 99
69 39 -5 54 -33 17 -33 -11 0 -20 -4 -20 -10 0 -5 4 -10 8 -10 4 0 8 -16 9
-36 1 -28 -4 -38 -23 -46 -13 -6 -24 -20 -24 -31 0 -10 -9 -21 -20 -24 -22 -6
-24 -11 -12 -30 10 -15 98 -63 116 -63 18 0 27 26 20 55 -5 21 -2 25 30 30 21
4 41 17 51 31 8 13 21 24 27 24 9 0 9 -3 0 -12 -22 -22 -14 -41 13 -34 23 6
24 5 13 -13 -7 -11 -26 -26 -43 -33 -58 -24 -72 -62 -24 -72 22 -4 42 1 72 18
31 18 52 22 81 19 21 -3 34 -8 29 -12 -6 -3 -13 -25 -17 -48 l-6 -43 35 0 c35
0 43 8 26 25 -18 19 0 64 32 80 16 8 37 15 45 15 9 0 12 3 9 7 -4 3 3 17 14
29 17 19 19 26 10 38 -9 11 -8 15 5 20 28 11 -53 48 -103 48 -24 0 -43 4 -43
9 0 5 6 9 14 9 7 0 19 7 26 15 10 12 10 18 -1 31 -10 12 -24 15 -58 10 -35 -5
-54 -1 -97 20 -30 15 -54 30 -54 35 0 5 -12 9 -27 9 -53 0 -105 12 -91 21 7 5
23 9 36 9 18 0 22 6 22 30 0 20 -5 30 -15 30 -8 0 -15 5 -15 11 0 7 10 9 28 4
15 -4 51 -9 79 -12 50 -5 53 -6 47 -29 -5 -18 0 -29 17 -44 33 -27 41 -25 37
12 -3 29 0 32 42 47 58 20 57 19 37 38 -13 13 -20 15 -29 5 -14 -14 -98 -16
-98 -2 0 21 44 30 137 28 94 -2 98 -1 96 19 -1 12 4 27 12 33 8 7 15 9 15 6 0
-4 9 -2 20 4 11 6 20 15 20 20 0 14 -26 12 -42 -2 -21 -20 -170 -23 -207 -4
-52 27 -97 17 -51 -12 30 -18 24 -32 -14 -32 -44 0 -53 -14 -19 -29 19 -9 23
-15 15 -23 -8 -8 -18 -6 -36 6 -24 15 -26 15 -26 0 0 -13 -6 -15 -27 -9 -35 9
-41 14 -24 24 21 14 4 29 -25 23 -18 -3 -31 1 -39 12 -7 10 -26 16 -46 16 -19
0 -51 0 -72 -1 -41 0 -44 20 -4 22 l22 0 -23 11 c-12 6 -21 16 -19 22 4 11 36
11 117 1 l45 -6 -27 18 c-41 26 -36 43 12 40 38 -2 55 -20 28 -30 -7 -2 -10
-8 -5 -12 4 -5 13 -3 19 3 17 17 29 15 26 -5 -2 -14 5 -19 32 -21 l35 -2 -30
17 -30 16 35 13 c19 7 27 13 17 13 -25 1 -67 31 -67 47 0 19 29 18 36 -1 7
-17 34 -21 34 -5 0 6 -4 10 -8 10 -5 0 -25 15 -46 33 -26 23 -35 38 -30 50 3
10 11 17 18 16 6 -1 25 1 41 5 17 4 40 9 51 12 12 2 24 13 27 24 4 15 13 20
40 20 30 0 34 -3 30 -23 -3 -14 2 -29 12 -37 15 -12 21 -12 45 2 35 20 41 15
28 -25 -15 -46 -53 -80 -79 -72 -15 5 -20 3 -17 -6 2 -7 -9 -25 -26 -39 -29
-27 -29 -28 -9 -38 26 -14 213 -23 213 -11 0 5 12 14 27 20 25 9 26 10 7 23
-10 7 -32 16 -48 20 -23 6 -27 9 -15 17 7 5 21 9 30 9 9 0 40 11 70 24 50 22
52 24 32 35 -12 6 -29 11 -37 11 -9 0 -16 7 -16 16 0 9 6 14 12 12 7 -3 21 4
32 13 30 29 6 48 -67 51 -34 2 -62 8 -64 14 -5 16 72 23 120 11 48 -12 59 -1
27 25 -14 11 -25 28 -25 37 0 10 -10 17 -25 19 -14 2 -29 7 -34 12 -14 14 34
22 90 15 57 -7 74 -25 24 -25 -16 0 -30 -4 -30 -9 0 -5 20 -9 45 -9 40 1 45 3
39 21 -5 16 -2 18 15 12 15 -5 21 -2 21 10 0 8 -7 18 -16 22 -23 9 3 23 44 23
45 0 82 -26 82 -58 0 -14 -3 -22 -7 -19 -3 4 -13 -2 -21 -14 -8 -11 -11 -23
-8 -26 3 -4 6 -1 6 5 0 24 15 11 26 -22 10 -32 9 -35 -13 -41 -13 -3 -21 -10
-18 -15 8 -13 115 -6 124 9 4 7 12 11 17 10 23 -4 33 2 27 17 -5 13 0 14 30 9
21 -4 50 -2 71 6 45 16 56 6 27 -25 -13 -14 -20 -29 -16 -35 3 -6 -2 -14 -12
-17 -10 -3 -35 -13 -56 -22 -38 -15 -39 -15 -56 7 -16 21 -22 22 -100 16 -55
-3 -88 -2 -97 6 -16 13 -57 2 -51 -14 2 -7 12 -11 21 -9 10 2 23 -2 30 -8 8
-5 21 -7 30 -4 10 4 25 -1 36 -11 21 -19 18 -37 -5 -28 -8 3 -15 1 -15 -4 0
-11 105 -11 116 0 4 4 18 7 30 7 30 0 48 -33 40 -73 -4 -21 -1 -36 10 -48 9
-11 14 -25 10 -35 -5 -14 -4 -15 8 -5 17 15 66 112 66 133 0 21 29 44 65 52
62 15 103 18 109 7 5 -7 -4 -11 -23 -11 -35 0 -41 -22 -16 -56 8 -10 15 -26
15 -34 0 -8 14 -24 30 -35 16 -11 30 -28 30 -37 0 -24 20 -67 50 -107 14 -19
24 -36 23 -38 -9 -11 0 -23 16 -23 14 0 17 -6 14 -23 -4 -17 2 -26 22 -35 38
-17 47 -15 40 9 -7 20 -5 22 31 16 22 -3 64 -2 94 3 30 4 60 4 65 0 17 -12 75
-20 173 -21 50 -1 92 -5 92 -10 0 -5 -22 -9 -49 -9 -82 0 -104 -8 -122 -46
-15 -31 -15 -35 1 -49 9 -8 24 -15 33 -15 9 0 17 -7 17 -15 0 -8 7 -15 15 -15
8 0 15 -7 15 -15 0 -10 -10 -15 -29 -15 -17 0 -32 -4 -35 -9 -7 -11 18 -33 27
-24 4 3 12 1 19 -4 7 -6 33 -13 57 -17 56 -9 89 -25 71 -36 -7 -4 -25 -4 -41
2 -18 6 -34 6 -46 0 -16 -9 -15 -11 9 -17 24 -6 26 -9 15 -26 -8 -14 -19 -18
-35 -14 -14 3 -29 0 -38 -10 -9 -8 -26 -15 -39 -15 -12 0 -36 -7 -51 -15 -16
-8 -36 -15 -45 -15 -9 0 -19 -7 -23 -15 -4 -10 1 -15 14 -15 12 0 17 -5 14
-14 -3 -8 -1 -17 5 -21 6 -3 11 -14 11 -24 0 -22 38 -56 73 -65 15 -3 27 -11
27 -16 0 -13 -6 -13 -30 2 -15 10 -22 10 -32 0 -10 -10 -9 -18 5 -41 21 -36
22 -55 2 -71 -12 -10 -21 -10 -41 -2 -18 9 -29 9 -44 0 -10 -7 -23 -9 -27 -5
-4 5 -1 12 6 16 21 14 -56 61 -99 61 -76 0 -99 -20 -62 -53 13 -12 37 -17 76
-17 31 0 55 -4 52 -9 -9 -13 48 -21 57 -8 6 9 10 9 14 0 2 -7 16 -13 29 -13
13 0 24 -4 24 -10 0 -6 -34 -10 -81 -10 -76 0 -80 1 -74 20 9 27 -1 25 -45
-10 -21 -16 -46 -30 -55 -30 -16 0 -16 2 -1 24 18 29 12 56 -14 56 -19 0 -90
-53 -104 -77 -9 -16 7 -33 32 -33 6 0 12 -4 12 -9 0 -13 -58 -19 -69 -8 -15
15 -41 0 -41 -22 0 -16 9 -21 44 -26 24 -4 53 -4 65 0 22 7 61 -9 61 -25 0 -6
-26 -10 -58 -10 -32 0 -62 -3 -66 -7 -4 -4 -14 -8 -23 -8 -8 0 -21 -17 -29
-40 -15 -43 -10 -97 9 -93 7 1 29 -4 50 -11 42 -14 162 -7 184 11 7 6 28 7 49
4 20 -4 41 -3 48 3 7 6 22 8 34 5 18 -5 19 -8 8 -20 -8 -7 -25 -16 -39 -19
-15 -4 -31 -13 -37 -19 -8 -10 37 -12 218 -10 250 3 315 9 333 30 17 21 -13
53 -34 36 -9 -8 -17 -8 -24 -1 -8 8 -13 8 -17 0 -12 -19 -28 -12 -21 9 6 18 1
19 -51 19 -62 -1 -76 9 -72 51 3 23 7 25 50 25 25 0 49 3 52 6 3 3 36 2 73 -3
132 -15 167 -14 159 7 -4 11 1 15 19 15 27 0 33 -18 13 -38 -9 -9 -9 -12 3
-12 8 0 19 8 26 19 9 15 8 21 -8 35 -11 9 -27 16 -37 16 -32 0 -62 12 -62 25
0 14 -150 32 -169 20 -6 -3 -11 1 -11 11 0 13 -6 15 -27 11 -16 -3 -57 0 -93
7 -63 12 -65 13 -68 45 -2 18 2 39 9 47 15 18 53 18 68 0 7 -8 35 -20 64 -27
46 -11 52 -10 62 6 5 10 20 30 33 45 28 35 28 40 -4 40 -14 0 -23 4 -20 9 4 5
-20 17 -51 27 -79 24 -93 32 -87 49 7 17 56 20 84 5 20 -11 127 -20 148 -13
23 9 12 29 -26 46 -24 10 -65 17 -108 17 -43 1 -76 6 -87 15 -13 9 -36 12 -73
9 -33 -3 -54 0 -54 6 0 5 11 10 24 10 35 0 56 10 56 26 0 8 7 14 15 14 8 0 15
-4 15 -10 0 -5 6 -10 13 -10 6 0 24 -6 39 -14 18 -9 28 -11 30 -4 4 11 100
-15 123 -32 13 -10 104 -17 98 -7 -2 4 -25 17 -51 29 -48 21 -44 36 6 22 15
-4 37 -6 50 -5 16 2 25 -4 28 -16 6 -20 77 -48 82 -32 6 14 52 11 52 -4 0 -9
-26 -17 -81 -24 -44 -6 -83 -13 -86 -17 -15 -14 9 -16 72 -6 49 8 70 8 75 0 4
-6 14 -8 23 -4 10 3 23 2 30 -4 7 -6 26 -10 42 -10 38 1 115 -37 115 -57 0
-10 10 -15 29 -15 23 0 34 7 48 30 9 17 23 30 30 30 23 0 105 82 93 94 -17 17
-11 26 18 26 15 0 36 7 46 15 16 12 17 17 6 30 -10 12 -10 15 3 15 17 0 77
-82 77 -105 0 -8 8 -19 18 -24 12 -7 13 -13 6 -18 -16 -11 -64 -148 -64 -182
0 -38 20 -93 39 -109 10 -7 31 -10 52 -7 29 4 42 0 63 -20 27 -25 34 -45 16
-45 -17 0 -11 -27 8 -35 9 -4 42 -9 72 -11 l55 -3 -42 27 c-50 32 -66 62 -53
97 10 27 36 43 48 30 4 -4 1 -10 -6 -12 -19 -7 -14 -23 8 -23 12 0 32 -7 45
-16 27 -18 45 -12 45 16 0 23 29 35 37 14 3 -8 19 -22 36 -30 29 -15 30 -15
53 13 13 15 23 36 24 45 0 9 5 20 10 23 6 4 9 12 8 20 -4 19 49 65 75 65 36 0
-1 27 -49 35 -37 6 -43 3 -83 -34 -23 -22 -52 -41 -64 -43 -12 -2 -21 -9 -19
-16 1 -7 -2 -21 -8 -32 -9 -18 -13 -18 -56 -5 -25 7 -62 11 -82 8 -34 -6 -36
-5 -23 10 7 9 31 22 52 28 21 7 41 20 44 30 8 26 65 71 81 65 8 -3 14 -2 14 3
0 5 -20 14 -45 21 -25 7 -48 16 -51 21 -2 4 -11 6 -19 2 -11 -4 -13 -1 -9 11
4 10 1 16 -9 16 -8 0 -17 7 -21 15 -7 19 -55 20 -62 1 -3 -8 -12 -12 -20 -9
-25 9 -15 20 31 32 25 6 45 15 45 19 0 19 -94 85 -121 85 -37 0 -38 22 -2 59
16 17 37 28 53 28 15 0 30 3 33 6 11 12 -13 44 -33 44 -10 0 -22 5 -25 10 -3
6 -23 10 -43 10 -20 0 -46 7 -56 15 -11 8 -33 15 -48 15 -17 0 -39 10 -54 25
-18 19 -31 24 -50 19 -20 -5 -24 -2 -24 15 0 12 -4 21 -10 21 -5 0 -10 5 -10
10 0 6 11 10 25 10 14 0 25 5 25 10 0 6 -8 10 -18 10 -11 0 -33 7 -51 16 -17
9 -38 14 -45 11 -8 -3 -24 5 -37 19 -17 19 -20 27 -11 36 15 15 15 28 2 28 -6
0 -15 -11 -20 -25 -8 -20 -16 -25 -44 -25 -26 0 -35 5 -39 22 -4 13 -1 26 6
30 8 5 7 8 -5 8 -10 0 -18 3 -18 8 0 4 -18 6 -39 4 -52 -5 -88 19 -97 64 -3
19 -10 37 -15 40 -19 11 -7 24 24 25 18 1 24 3 14 6 -32 8 -67 -6 -67 -27 0
-24 -16 -26 -28 -4 -5 9 -24 19 -43 23 -32 7 -33 8 -13 19 15 8 32 8 55 2 38
-11 65 3 39 20 -10 7 -4 8 20 4 54 -8 77 -13 95 -20 14 -6 16 -3 11 13 -5 16
-1 22 19 27 51 13 17 36 -54 36 -63 0 -161 -21 -161 -35 0 -33 -101 -23 -114
10 -3 8 -16 15 -30 15 -31 0 -56 9 -56 21 0 5 7 9 15 9 8 0 30 8 50 17 25 12
35 23 35 40 0 30 -27 41 -48 19 -13 -12 -14 -19 -4 -28 20 -20 14 -27 -17 -18
-27 8 -71 42 -71 56 0 4 13 4 30 1 21 -5 29 -3 27 6 -1 8 20 14 68 17 99 7
156 50 77 58 -28 3 -32 0 -32 -20 0 -19 -2 -20 -15 -8 -10 11 -32 14 -80 12
-56 -3 -64 -6 -54 -18 17 -20 7 -26 -51 -32 -60 -6 -78 -22 -62 -57 11 -24 10
-25 -13 -19 -34 8 -34 -22 0 -38 14 -6 25 -15 25 -20 0 -9 -24 -11 -33 -2 -4
4 -25 8 -48 10 -34 3 -40 1 -35 -11 12 -31 -83 -43 -119 -15 -5 5 -36 16 -67
25 -32 9 -58 18 -58 20 0 2 24 8 52 15 44 9 54 8 63 -4 15 -19 58 -30 90 -22
31 8 23 26 -11 26 -15 0 -23 4 -19 11 4 6 19 7 37 4 27 -6 29 -5 26 17 -2 12
-9 22 -16 20 -21 -4 -13 8 21 28 l32 20 -32 0 c-17 0 -35 5 -38 10 -3 6 -15
10 -25 10 -10 0 -22 9 -25 20 -4 13 -15 20 -31 20 -41 0 -27 15 34 34 31 11
64 27 74 38 9 10 20 18 26 18 5 0 9 13 8 28 -1 21 -5 28 -16 25 -9 -2 -24 5
-34 16 -21 23 -66 28 -66 8 0 -8 17 -18 38 -23 32 -8 37 -13 37 -39 0 -26 -4
-30 -30 -32 -16 -1 -44 -7 -62 -14 -18 -7 -35 -10 -38 -7 -11 11 18 45 34 42
19 -5 58 23 48 33 -4 3 -18 0 -32 -7 -20 -10 -28 -11 -37 -2 -14 14 -138 16
-138 3 0 -6 24 -11 52 -13 40 -2 54 -7 56 -20 3 -16 1 -16 -28 -2 -17 9 -41
13 -55 10 -15 -4 -37 2 -61 16 -49 29 -208 36 -237 10 -13 -12 -20 -13 -29 -4
-9 9 -20 6 -44 -13 -36 -28 -59 -32 -71 -12 -17 27 -70 55 -118 62 -65 8 -105
24 -105 41 0 7 -8 17 -17 23 -17 9 -12 25 8 27 5 1 12 2 15 3 4 0 1 8 -6 16
-10 12 -41 15 -155 15 -118 0 -144 -3 -149 -15 -3 -8 -16 -15 -29 -15 -14 0
-30 -6 -36 -14 -16 -19 -96 -35 -141 -29 -19 3 -55 -2 -79 -10 -33 -12 -49
-13 -67 -5 -23 11 -23 12 -8 30 13 13 26 16 53 13 38 -6 68 6 58 23 -4 5 -17
7 -31 5 -13 -3 -27 0 -30 6 -4 6 -39 11 -82 11 -48 0 -73 -4 -69 -10 3 -5 23
-10 43 -10 20 0 44 -5 52 -10 10 -7 -13 -10 -74 -10 -88 0 -89 0 -71 20 18 20
17 20 -22 20 -33 0 -42 -4 -46 -21 -4 -16 -10 -20 -24 -14 -19 9 -27 9 -111
-1 -48 -5 -54 -4 -59 15 -5 18 -13 21 -65 21 -55 0 -59 -2 -53 -20 4 -13 1
-22 -9 -26 -9 -3 -16 -12 -16 -20 0 -18 2 -18 43 6 l34 20 -1 -22 c-1 -25 25
-35 96 -37 26 -1 50 -6 54 -12 4 -8 26 -10 62 -6 45 5 60 2 80 -14 14 -10 36
-19 49 -19 16 0 27 -7 30 -20 3 -11 11 -20 19 -20 7 0 15 -4 18 -9 3 -4 -20
-9 -51 -10 -58 -1 -110 20 -97 40 27 45 -114 37 -173 -9 -18 -15 -33 -33 -33
-39 0 -7 -6 -13 -12 -12 -18 1 -55 17 -43 18 19 2 -20 21 -42 21 -42 0 -23 18
25 24 97 11 132 18 132 27 0 5 -15 9 -34 9 -19 0 -38 5 -41 10 -10 16 -60 12
-109 -10 -48 -20 -60 -44 -26 -55 27 -9 25 -27 -2 -23 -28 4 -36 -25 -14 -48
21 -20 20 -27 -4 -49 -14 -12 -18 -25 -14 -41 7 -29 -1 -30 -51 -4 -22 11 -47
20 -57 20 -11 0 -15 5 -12 14 3 8 0 17 -6 21 -8 5 -6 12 5 25 14 15 14 21 4
38 -10 16 -10 23 0 36 8 9 10 26 6 45 -6 27 -1 36 39 75 81 78 90 76 -279 76
-285 0 -325 -2 -325 -15 0 -9 12 -20 27 -26 20 -7 24 -12 14 -18 -9 -6 -11
-18 -6 -40 5 -24 2 -37 -10 -51 -15 -17 -15 -19 4 -25 12 -4 30 0 43 9 12 9
35 16 50 16 18 0 28 5 28 15 0 18 12 19 28 3 17 -17 15 -28 -7 -28 -10 0 -22
-7 -25 -16 -3 -8 -10 -13 -15 -10 -5 4 -4 -7 2 -24 6 -16 18 -31 27 -33 8 -2
-5 -3 -30 -2 -25 1 -61 9 -80 17 -42 18 -143 11 -119 -8 8 -7 30 -15 49 -19
43 -8 122 -36 134 -46 6 -5 3 -16 -7 -27 -21 -23 -21 -32 -3 -32 8 0 28 -13
44 -30 18 -18 41 -30 56 -30 39 0 31 -15 -19 -36 -72 -29 -58 -41 43 -38 57 1
76 -6 52 -21 -5 -3 -7 -11 -4 -19 6 -17 -66 -41 -100 -32 -18 4 -24 3 -21 -7
4 -8 -11 -17 -40 -26 -26 -7 -53 -21 -62 -30 -15 -15 -15 -16 3 -19 44 -7 48
-11 31 -30 -15 -16 -15 -20 -2 -39 8 -12 25 -23 38 -25 30 -4 28 -21 -3 -28
-14 -3 -42 -14 -62 -23 -40 -18 -93 -23 -102 -8 -4 5 25 14 64 21 38 6 70 15
70 20 0 4 -28 11 -62 15 -65 8 -66 10 -8 46 13 8 13 10 0 19 -44 29 -44 28
-32 43 10 12 8 13 -13 9 -16 -3 -25 -11 -25 -23 0 -11 -8 -22 -17 -25 -51 -17
-153 -71 -158 -84 -2 -8 -14 -21 -26 -28 -21 -13 -21 -12 -15 14 4 15 3 30 -2
33 -5 3 -12 16 -16 27 -6 20 -4 21 39 17 28 -4 45 -2 45 5 0 6 -5 12 -12 14
-19 7 24 48 51 48 23 0 24 1 7 13 -17 13 -18 14 -2 20 21 8 12 27 -14 27 -18
0 -34 23 -23 34 4 3 19 6 34 6 15 0 30 4 33 9 7 11 -46 31 -80 31 -13 0 -24 4
-24 9 0 10 24 21 48 21 9 0 31 11 47 25 l30 24 -31 1 c-18 0 -45 7 -60 15 -16
8 -39 15 -51 15 -31 0 -29 18 5 33 15 6 37 22 49 34 12 11 36 24 53 28 31 7
40 31 20 51 -13 13 18 74 38 74 7 0 30 12 52 26 34 23 37 28 27 45 -7 11 -20
22 -29 25 -10 3 -18 9 -18 14 0 5 -16 14 -35 21 -19 7 -35 16 -35 19 0 3 -43
7 -95 8 l-95 3 0 -50z m2865 -423 c15 -22 17 -22 29 -5 12 16 15 16 27 1 7 -8
31 -25 53 -36 22 -11 46 -27 54 -34 7 -8 20 -14 28 -14 8 0 13 -4 9 -9 -12
-20 -135 12 -135 36 0 23 -22 25 -44 4 -12 -12 -28 -21 -34 -21 -7 0 -12 -4
-12 -10 0 -5 8 -10 17 -10 9 0 27 -9 39 -21 14 -13 43 -24 76 -28 l53 -8 -37
-7 c-39 -8 -138 11 -138 26 0 4 -18 8 -39 8 -46 0 -63 17 -26 26 16 4 25 13
25 25 0 10 6 19 14 19 7 0 19 7 26 15 11 13 10 18 -8 31 -12 8 -22 19 -22 25
0 17 29 9 45 -13z m660 -62 c36 -29 29 -49 -25 -65 -37 -11 -45 -10 -59 4 -14
14 -14 17 -1 26 15 10 6 9 -50 -7 -11 -3 -20 -1 -20 4 0 6 -14 7 -37 1 -45
-10 -115 -12 -138 -3 -26 11 3 24 52 24 30 0 48 6 62 21 15 17 23 19 39 10 28
-15 67 -14 81 2 15 19 62 10 96 -17z m-115 -156 c0 -5 7 -10 15 -10 9 0 27
-12 42 -26 23 -23 27 -24 42 -10 22 20 60 21 67 1 7 -18 74 -18 74 1 0 6 -13
17 -30 23 -35 12 -40 31 -7 30 22 0 70 -17 54 -18 -5 -1 -1 -11 7 -23 20 -29
20 -42 0 -34 -10 4 -14 1 -12 -6 3 -9 26 -13 69 -13 35 1 66 -2 69 -5 3 -3 17
-11 33 -17 49 -22 33 -38 -35 -33 -30 2 -38 -17 -13 -26 8 -4 15 -12 15 -20 0
-8 10 -14 25 -14 31 0 33 -18 3 -29 l-22 -8 22 -12 c18 -10 24 -8 38 14 18 27
68 37 58 11 -8 -21 17 -32 31 -13 7 10 17 17 23 17 12 0 42 -56 34 -64 -11
-12 -43 -6 -48 9 -10 24 -34 17 -45 -12 -8 -22 -12 -25 -20 -13 -8 13 -11 13
-22 0 -17 -22 -117 -26 -117 -5 0 9 9 15 24 15 34 0 40 15 13 28 -27 13 -117
22 -117 12 0 -4 7 -13 15 -20 8 -7 15 -16 15 -21 0 -5 -7 -6 -15 -3 -25 10
-17 -13 20 -52 40 -42 41 -44 20 -44 -8 0 -15 5 -15 10 0 6 -12 10 -26 10 -21
0 -24 -4 -19 -20 7 -22 -13 -28 -32 -9 -8 8 -15 5 -24 -9 -15 -20 -24 -19 -79
13 l-25 15 23 6 c23 7 29 19 12 29 -15 9 -12 25 5 25 8 0 15 6 15 13 0 22 -18
40 -32 34 -8 -3 -35 4 -59 16 l-44 20 75 9 c88 10 104 6 95 -22 -5 -16 -2 -20
19 -20 19 0 26 5 26 20 0 11 -6 20 -14 20 -8 0 -16 7 -20 15 -4 12 -24 15 -86
15 -45 0 -80 4 -80 10 0 13 38 32 50 25 6 -3 10 1 10 9 0 18 16 21 26 5 4 -7
20 -9 40 -6 22 4 37 1 45 -9 15 -18 28 -18 50 2 17 16 19 15 28 -10 12 -31 15
-31 40 -10 32 28 15 44 -44 44 -44 0 -55 3 -60 20 -9 28 -61 50 -119 50 -28 0
-60 6 -71 14 -11 7 -53 19 -92 26 -48 9 -73 18 -73 27 0 9 17 13 65 13 37 0
65 -4 65 -10z m-44 -335 c9 -8 31 -15 49 -15 56 0 50 -19 -7 -22 -44 -2 -53
-6 -53 -22 0 -15 7 -19 40 -19 72 1 77 2 72 18 -9 21 5 25 28 9 15 -11 17 -18
9 -32 -16 -24 -75 -33 -150 -23 -74 11 -101 26 -83 47 6 8 15 11 20 8 5 -3 9
8 9 25 0 27 8 35 43 40 5 0 15 -6 23 -14z m574 -68 c0 -13 -6 -29 -12 -35 -10
-10 -10 -17 0 -32 6 -11 8 -21 2 -25 -5 -3 -11 -1 -15 5 -11 17 -38 12 -31 -6
5 -14 1 -16 -29 -11 -32 5 -35 4 -30 -14 5 -15 2 -19 -19 -19 -14 0 -28 5 -31
10 -3 6 -1 10 6 10 7 0 6 8 -5 25 -19 29 -20 35 -5 35 7 0 17 7 23 15 10 13
118 64 139 65 4 0 7 -10 7 -23z m-779 -423 c15 -9 10 -37 -6 -31 -20 8 -30
-11 -15 -28 13 -16 6 -35 -14 -35 -7 0 -31 9 -54 20 -49 24 -85 26 -102 5 -16
-19 -5 -64 18 -71 9 -3 25 -10 34 -15 24 -12 62 -11 75 2 16 16 32 3 26 -21
-6 -23 -41 -36 -56 -21 -6 6 -22 11 -35 11 -32 0 -115 67 -108 87 4 9 -1 17
-14 20 -16 4 -18 8 -9 19 9 11 8 15 -5 19 -9 3 -23 7 -31 10 -28 8 -15 25 19
25 19 0 38 5 42 11 7 12 215 6 235 -7z"/>
<path d="M2629 5091 c-11 -13 -19 -31 -19 -40 0 -9 -3 -26 -6 -38 -6 -21 -3
-23 33 -23 21 0 44 5 50 11 8 8 13 8 17 0 4 -6 19 -11 33 -11 20 0 24 4 20 20
-3 11 0 23 5 26 7 4 4 10 -6 16 -23 13 -11 27 24 26 32 -1 69 -31 51 -43 -16
-9 -13 -25 3 -25 8 0 21 9 29 21 12 17 19 19 35 10 14 -7 18 -17 15 -31 -4
-16 0 -20 21 -20 29 0 35 14 9 24 -12 5 -13 10 -5 18 7 7 19 7 43 -1 43 -15
92 -14 87 1 -3 7 -19 16 -36 20 -18 5 -32 13 -32 17 0 5 -14 4 -30 -2 -32 -12
-60 -3 -68 22 -3 10 0 10 17 2 15 -9 26 -9 42 -1 11 7 27 9 35 6 8 -3 14 1 14
10 0 13 -24 15 -181 12 -178 -3 -182 -4 -200 -27z"/>
<path d="M3180 5112 c0 -18 50 -33 72 -21 23 12 38 -1 38 -33 0 -9 9 -20 20
-23 12 -4 28 -14 38 -24 29 -30 98 -46 136 -33 18 7 43 12 57 12 13 0 30 4 38
9 15 10 71 -17 71 -35 0 -6 -11 -28 -25 -48 -30 -44 -30 -42 -5 -49 11 -3 20
-12 20 -21 0 -10 6 -13 15 -10 8 4 15 1 15 -5 0 -16 -38 -51 -55 -51 -8 0 -15
-4 -15 -10 0 -5 11 -10 24 -10 14 0 28 5 31 10 7 12 55 14 55 2 0 -4 -13 -13
-30 -19 -16 -6 -30 -15 -30 -20 0 -10 100 -43 128 -43 10 0 23 -5 29 -11 15
-15 49 4 56 31 3 11 2 18 -3 15 -11 -7 -72 20 -63 28 3 4 15 7 25 7 22 0 24
28 3 36 -8 4 -15 12 -15 19 0 16 87 25 115 12 30 -14 30 -15 4 -35 -22 -18
-22 -21 -7 -44 15 -22 15 -25 0 -34 -21 -14 -6 -37 20 -31 11 3 21 0 24 -8 8
-19 -33 -57 -70 -65 -17 -4 -30 -12 -28 -19 5 -24 -18 -52 -39 -46 -26 9 -59
-3 -59 -21 0 -9 10 -14 28 -14 35 0 45 -9 31 -27 -9 -10 -7 -13 9 -13 12 0 24
5 27 10 9 14 31 12 48 -4 9 -9 19 -11 28 -5 11 7 11 9 -3 9 -10 0 -18 5 -18
10 0 6 9 10 19 10 11 0 23 5 26 10 4 6 -10 10 -34 10 -43 0 -55 14 -21 25 19
6 100 -15 142 -36 10 -5 30 -9 44 -9 15 0 41 -9 59 -20 30 -19 71 -19 60 0 -3
4 -34 23 -70 41 -43 21 -65 38 -65 50 0 10 -5 21 -10 24 -25 16 6 27 57 21 46
-5 54 -4 60 11 10 29 35 53 55 53 15 0 18 5 13 20 -4 14 -2 20 8 20 8 0 20 6
26 14 10 12 7 18 -13 31 -37 25 -22 37 36 29 41 -6 50 -4 46 7 -3 8 -18 17
-34 20 -16 3 -44 11 -62 18 -30 12 -31 14 -15 26 17 13 17 14 -5 33 l-23 20
31 10 c38 14 32 31 -19 55 -47 22 -50 21 -77 -4 -17 -16 -30 -20 -49 -15 -28
7 -46 37 -27 44 7 2 12 15 12 28 0 24 31 64 50 64 6 0 10 5 10 10 0 11 -15 12
-47 4 -16 -4 -23 -14 -23 -31 0 -16 -4 -23 -12 -19 -7 3 -21 9 -30 12 -10 4
-18 15 -18 25 0 15 -7 19 -38 19 -36 0 -62 -14 -62 -32 0 -5 11 -6 24 -2 31 7
93 -45 74 -64 -15 -15 -38 -16 -38 -2 0 6 -4 10 -9 10 -5 0 -8 -12 -7 -26 1
-23 4 -25 36 -19 31 5 33 4 18 -8 -10 -8 -18 -17 -18 -21 0 -11 18 -6 34 10
15 14 16 14 16 -5 0 -11 7 -27 16 -35 14 -15 13 -17 -15 -27 -32 -11 -42 -29
-16 -29 18 0 19 -12 4 -27 -7 -7 -27 -6 -65 3 -31 7 -80 13 -110 13 -45 0 -57
-4 -73 -25 -10 -13 -26 -24 -35 -24 -20 0 -21 29 -2 36 8 3 16 13 19 23 4 16
45 33 86 35 8 1 16 7 19 14 5 15 46 16 72 0 26 -16 39 -2 14 17 -22 17 -94 20
-94 4 0 -7 -10 -9 -25 -5 -18 5 -27 2 -31 -9 -7 -16 -54 -21 -54 -5 0 6 -9 10
-21 10 -15 0 -19 4 -15 16 3 9 6 20 6 25 0 19 21 8 30 -16 10 -27 30 -34 30
-11 0 7 12 22 28 31 33 22 92 83 92 96 0 5 -9 9 -20 9 -13 0 -20 7 -20 20 0
19 -7 20 -101 20 l-101 0 -31 -35 c-30 -34 -31 -35 -49 -15 -10 10 -18 26 -18
35 0 24 -56 20 -63 -5 -5 -20 -37 -29 -37 -10 0 6 7 10 15 10 8 0 15 5 15 10
0 6 -60 10 -160 10 -88 0 -160 -4 -160 -8z"/>
<path d="M4180 5090 c0 -32 14 -42 72 -54 24 -6 27 -10 21 -36 -5 -27 -3 -30
21 -30 27 0 36 -15 14 -23 -7 -2 -10 -8 -6 -12 3 -4 17 5 29 19 27 31 40 33
57 5 9 -14 20 -19 33 -16 26 7 33 -8 12 -28 -13 -13 -14 -18 -3 -25 9 -6 11
-21 6 -53 -6 -40 -5 -46 14 -52 24 -8 44 10 53 47 6 22 3 28 -15 34 -22 7 -48
28 -48 38 0 3 8 6 18 6 10 0 22 4 28 9 13 12 74 22 74 12 0 -5 9 -7 21 -4 18
5 17 7 -12 25 -17 11 -37 17 -43 15 -7 -3 -18 4 -25 15 -11 17 -9 23 9 43 l21
22 -41 28 c-22 15 -40 32 -40 36 0 14 -28 11 -33 -3 -4 -10 -7 -10 -18 0 -9 8
-47 12 -116 12 l-103 0 0 -30z"/>
<path d="M4680 5106 c0 -8 8 -17 18 -19 10 -3 6 -5 -10 -6 -36 -1 -36 -17 -1
-26 32 -8 52 -32 53 -62 0 -36 11 -53 34 -54 15 -1 16 -3 4 -6 -9 -2 -33 3
-53 11 -29 13 -41 13 -58 4 -21 -12 -21 -12 -2 -16 11 -2 27 -11 37 -19 9 -8
24 -13 35 -11 14 2 17 -2 15 -21 -3 -20 0 -23 17 -18 25 6 40 -11 20 -24 -21
-12 -3 -22 19 -10 12 6 31 7 48 2 16 -4 47 -7 69 -5 57 3 95 -5 95 -22 0 -8 5
-14 10 -14 6 0 10 -6 10 -14 0 -9 14 -15 40 -18 l40 -4 0 128 c0 137 -3 143
-51 117 -12 -6 -28 -8 -37 -4 -15 5 -13 8 7 20 24 12 24 13 4 19 -34 11 -37
36 -5 38 15 0 32 2 38 2 12 1 44 31 44 41 0 3 -54 5 -120 4 -126 -2 -144 -10
-83 -38 19 -9 33 -23 36 -38 4 -23 2 -24 -29 -18 -25 4 -34 2 -34 -8 0 -20
-74 -51 -104 -43 -28 7 -43 40 -26 61 8 9 8 15 0 20 -8 5 -8 11 1 21 17 20 -1
36 -46 41 -26 3 -35 0 -35 -11z"/>
<path d="M2010 4770 c-9 -16 -8 -21 5 -25 47 -15 47 -20 -2 -23 -29 -2 -53 -7
-53 -13 0 -5 8 -9 18 -9 10 0 22 -4 28 -9 5 -5 23 -11 39 -13 17 -2 29 -7 28
-13 -1 -8 -8 -14 -42 -32 -2 -1 6 -14 18 -29 11 -15 21 -33 21 -40 0 -8 7 -14
15 -14 8 0 19 -9 25 -21 15 -27 54 -22 58 9 4 27 10 28 28 5 18 -24 17 -43 -2
-43 -8 0 -12 -4 -9 -10 3 -5 18 -10 32 -10 15 0 35 -8 45 -17 18 -16 21 -15
59 26 25 26 38 48 35 58 -3 8 -6 23 -6 33 0 14 -7 18 -27 17 -22 -2 -29 3 -31
21 -2 12 1 22 7 22 6 0 11 -7 11 -15 0 -8 5 -15 10 -15 6 0 10 7 10 15 0 8 -4
15 -10 15 -5 0 -10 7 -10 15 0 8 -4 15 -10 15 -5 0 -10 11 -10 25 0 24 -1 24
-102 27 -101 3 -101 3 -118 33 -20 37 -45 43 -60 15z"/>
<path d="M4460 4754 c-13 -13 -33 -24 -42 -24 -10 0 -35 -9 -55 -20 -21 -11
-47 -20 -59 -20 -12 0 -25 -7 -28 -16 -9 -22 -8 -24 9 -24 9 0 15 -7 13 -17
-2 -13 7 -19 41 -25 49 -8 66 -18 33 -18 -12 0 -22 -4 -22 -10 0 -5 9 -10 19
-10 11 0 23 -6 27 -12 6 -9 10 -5 14 12 4 16 13 25 25 25 11 1 39 6 61 13 23
7 50 11 60 10 39 -3 53 3 56 25 3 19 9 22 47 22 27 0 46 -5 49 -12 2 -9 -7
-13 -29 -13 -18 0 -29 -3 -26 -7 4 -3 -1 -12 -11 -19 -15 -11 -14 -14 13 -24
28 -11 28 -13 10 -20 -32 -13 -69 -11 -125 7 -33 11 -54 13 -58 7 -4 -6 -15
-13 -24 -17 -21 -7 -23 -29 -6 -57 8 -13 9 -23 3 -29 -14 -13 -74 13 -82 36
-3 10 -15 26 -25 36 -18 18 -20 18 -61 -1 -23 -11 -52 -23 -64 -26 -36 -12
-27 -26 17 -26 41 0 49 -7 28 -28 -13 -13 -8 -15 40 -12 30 1 33 -1 28 -18 -9
-26 8 -36 35 -21 l22 12 -23 12 c-14 8 -19 15 -12 19 6 4 19 -2 29 -14 10 -11
24 -20 33 -20 8 0 27 -6 41 -14 14 -7 39 -16 55 -20 26 -7 27 -9 12 -20 -13
-9 -14 -16 -6 -24 8 -8 7 -13 -5 -18 -9 -3 -17 -12 -17 -20 0 -10 6 -11 22 -5
14 5 35 3 57 -6 25 -11 53 -13 97 -8 69 7 101 28 62 40 -13 5 -24 3 -26 -4 -2
-6 -26 -11 -58 -11 -41 0 -54 4 -54 15 0 8 9 15 20 15 24 0 149 48 170 65 8 7
30 16 48 20 37 8 39 12 15 32 -16 12 -14 13 17 12 19 -1 48 2 63 6 20 5 33 3
47 -10 13 -11 25 -15 37 -10 10 5 24 7 31 6 6 -1 12 6 12 15 0 11 -5 14 -16
10 -9 -4 -24 -1 -32 6 -12 10 -14 10 -8 1 5 -9 0 -13 -13 -13 -12 0 -22 6 -22
13 -1 6 -2 19 -3 26 -1 16 -53 25 -148 24 -44 -1 -58 3 -58 13 0 10 7 13 25 8
20 -5 25 -3 25 14 0 12 -9 22 -21 25 -17 5 -20 11 -15 31 5 21 0 29 -36 54
-45 31 -98 49 -98 33 0 -5 10 -12 23 -16 l22 -8 -24 -4 c-13 -3 -28 0 -34 6
-17 17 -25 13 -29 -11 -2 -12 -11 -23 -23 -24 -11 -2 -31 -6 -45 -9 -14 -4
-40 0 -60 9 -32 14 -33 15 -10 16 38 1 57 16 30 23 -32 8 -19 32 16 30 33 -3
52 19 26 29 -30 12 -46 8 -72 -18z m218 -228 c-19 -14 -24 -36 -9 -36 5 0 11
6 14 13 4 9 7 9 17 0 18 -16 -5 -45 -34 -42 -41 3 -48 0 -41 -21 5 -14 2 -20
-9 -20 -10 0 -16 -9 -16 -22 l0 -23 -18 22 c-9 11 -32 24 -49 28 -28 6 -31 9
-23 25 16 29 12 42 -10 35 -21 -7 -24 2 -14 29 7 17 49 22 58 7 3 -5 23 -3 43
5 21 7 54 13 73 13 31 0 33 -1 18 -13z"/>
<path d="M1853 4399 c-6 -6 -9 -18 -6 -25 3 -9 -2 -14 -15 -14 -11 0 -25 -7
-32 -15 -7 -9 -22 -12 -40 -9 -15 4 -31 1 -34 -5 -14 -22 26 -23 79 -3 44 16
55 17 55 6 0 -8 3 -14 8 -14 4 0 20 -11 36 -25 31 -26 46 -31 46 -15 0 6 -7
10 -15 10 -8 0 -15 5 -15 10 0 6 7 10 15 10 8 0 15 -4 15 -10 0 -5 7 -10 15
-10 8 0 15 -4 15 -9 0 -5 -7 -11 -15 -15 -27 -10 -16 -35 25 -56 21 -11 44
-20 50 -20 6 0 22 -7 36 -16 18 -12 22 -20 14 -29 -18 -22 28 -30 50 -10 11
10 18 21 17 25 -1 5 7 16 18 24 20 16 20 16 1 31 -10 8 -24 16 -30 18 -16 5
12 37 33 37 9 0 22 4 30 9 12 8 12 12 2 25 -8 10 -9 16 -3 16 12 0 42 28 42
40 0 4 -15 6 -32 4 -18 -1 -36 -3 -40 -3 -5 -1 -8 -7 -8 -14 0 -12 -65 -37
-97 -37 -24 0 -87 23 -105 37 -8 7 -24 10 -36 6 -18 -4 -23 0 -28 26 -7 32
-30 41 -51 20z"/>
<path d="M5065 4362 c-22 -15 -44 -33 -48 -39 -4 -7 -17 -13 -27 -13 -11 0
-20 -6 -20 -14 0 -8 -9 -18 -20 -21 -32 -10 -24 -31 13 -32 82 -2 80 -2 67
-18 -7 -9 -19 -14 -25 -11 -7 2 -30 0 -51 -6 -51 -13 -84 -11 -128 7 -42 18
-46 18 -46 5 0 -5 6 -10 14 -10 12 0 32 -30 24 -34 -2 -1 -14 -7 -28 -13 -25
-11 -25 -11 16 -28 32 -13 40 -21 37 -36 -4 -14 2 -20 23 -24 45 -10 74 -24
74 -35 0 -13 -67 -13 -75 0 -9 15 -52 12 -58 -4 -4 -11 -1 -13 11 -10 11 4 8
-3 -9 -19 -23 -21 -24 -25 -10 -34 14 -9 14 -13 2 -27 -7 -9 -22 -16 -32 -16
-44 0 -25 -27 26 -37 11 -2 24 -8 29 -13 19 -19 -4 -22 -50 -6 -45 15 -104 22
-104 11 0 -19 27 -55 41 -55 9 0 25 -3 34 -6 14 -6 14 -8 1 -23 -14 -16 -7
-17 102 -19 90 -2 122 1 137 12 19 14 19 15 2 21 -9 4 -29 5 -42 3 -33 -7 -32
5 5 35 17 14 30 33 30 42 0 13 -7 15 -43 10 -51 -8 -130 10 -124 28 5 15 213
22 222 7 3 -6 -1 -10 -9 -10 -20 0 -20 -10 0 -38 15 -22 47 -28 78 -16 23 9
20 34 -4 34 -11 0 -20 5 -20 11 0 6 9 13 20 16 31 8 25 35 -7 33 -56 -4 -73 0
-84 21 -10 20 -9 21 9 16 12 -3 26 1 33 9 7 8 21 11 40 7 l29 -5 0 61 c0 34
-4 61 -10 61 -5 0 -10 7 -10 15 0 8 5 15 10 15 6 0 10 9 10 20 0 16 -7 20 -31
20 -18 0 -28 4 -24 10 4 6 10 8 15 5 4 -3 15 -2 24 1 13 5 16 22 16 85 0 43
-3 79 -7 78 -5 0 -26 -12 -48 -27z"/>
<path d="M1095 4345 c-16 -8 -60 -14 -97 -15 -37 0 -68 -5 -70 -10 -2 -6 -26
-14 -53 -18 -43 -6 -50 -11 -54 -32 -1 -14 -8 -28 -14 -32 -22 -13 7 -27 63
-30 53 -3 55 -4 53 -31 -2 -27 19 -38 32 -17 4 6 15 8 26 5 25 -8 155 54 199
95 18 16 38 30 46 30 8 0 14 7 14 16 0 13 -7 15 -32 10 -40 -8 -120 -54 -113
-66 8 -13 -56 -32 -70 -20 -6 5 -28 7 -48 3 -47 -7 -74 2 -58 21 12 15 56 27
109 29 17 1 32 7 32 12 0 6 18 17 41 25 23 8 41 19 41 25 -1 15 -14 15 -47 0z"/>
<path d="M2907 4213 c-33 -37 22 -183 69 -183 7 0 14 10 16 23 2 14 11 23 25
25 13 2 30 13 39 25 12 16 15 17 11 5 -7 -19 1 -22 27 -12 11 4 16 19 16 43 0
32 -5 40 -33 56 -27 14 -39 15 -72 6 -54 -15 -73 -15 -57 1 7 7 12 16 12 20 0
15 -37 8 -53 -9z"/>
<path d="M1937 4083 c3 -21 12 -42 20 -46 7 -4 13 -14 13 -22 0 -8 11 -22 25
-31 25 -17 27 -16 60 16 25 24 32 37 26 49 -5 9 -6 22 -3 30 3 10 -2 12 -21 8
-19 -5 -26 -3 -30 13 -4 16 -14 20 -50 20 l-46 0 6 -37z"/>
<path d="M1870 4017 c0 -23 -47 -67 -71 -67 -28 0 -59 -27 -53 -45 3 -7 -4
-19 -16 -25 -21 -11 -21 -12 -3 -32 18 -20 18 -20 23 4 3 12 11 23 18 22 7 -1
27 -2 45 -2 28 -2 37 -8 55 -43 13 -23 21 -43 20 -44 -11 -10 -48 -7 -63 5
-15 13 -19 12 -31 -4 -8 -12 -20 -17 -35 -13 -11 3 -31 2 -44 -3 -14 -5 -26
-5 -34 3 -6 6 -14 8 -17 4 -11 -11 39 -46 66 -47 45 0 122 -34 133 -58 9 -19
16 -22 39 -16 18 3 42 0 64 -11 29 -13 33 -20 28 -40 -4 -18 -1 -27 11 -31 20
-8 65 14 65 33 0 7 7 13 16 13 9 0 29 8 45 17 34 20 41 66 12 77 -10 4 -30 13
-45 22 -24 13 -33 13 -70 0 -48 -16 -65 -8 -49 22 13 24 3 94 -16 105 -19 12
-16 27 6 27 11 0 27 10 36 23 15 21 14 22 -13 28 -39 8 -80 39 -84 64 -3 23
-38 34 -38 12z"/>
<path d="M1518 3958 c7 -7 12 -16 12 -20 0 -11 -47 -10 -54 1 -3 5 -18 11 -32
14 -20 4 -28 0 -32 -15 -4 -17 -10 -19 -46 -14 -23 4 -45 11 -50 17 -6 5 -17
9 -25 9 -11 0 -8 -7 11 -23 20 -18 25 -29 21 -50 -4 -17 -10 -26 -18 -23 -25
9 -24 -7 2 -34 15 -16 32 -26 41 -23 11 5 13 1 7 -15 -5 -19 -3 -22 24 -22 17
0 31 -4 31 -10 0 -5 -9 -10 -20 -10 -11 0 -20 -5 -20 -10 0 -6 -10 -15 -22
-20 -19 -7 -14 -8 22 -8 70 0 254 -22 265 -33 5 -5 17 -9 27 -9 10 0 18 -4 18
-9 0 -5 12 -16 26 -26 30 -19 84 -12 84 12 0 10 -6 14 -20 10 -10 -3 -25 1
-31 9 -6 8 -24 13 -39 12 -17 -1 -41 8 -63 25 -20 15 -46 27 -59 27 -13 0 -29
5 -36 12 -9 9 -18 9 -37 0 -30 -14 -62 -16 -69 -4 -3 5 20 15 52 22 31 6 67
17 80 23 27 13 57 70 48 92 -4 11 5 16 34 21 44 7 55 24 15 24 -14 0 -29 8
-35 20 -7 13 -21 20 -40 20 -16 0 -32 5 -35 10 -3 6 -16 10 -28 10 -16 0 -18
-3 -9 -12z"/>
<path d="M2240 3726 c0 -7 -10 -16 -21 -19 -18 -5 -21 -11 -16 -37 6 -26 3
-32 -16 -39 -20 -8 -17 -10 23 -21 25 -8 49 -17 55 -22 18 -16 91 -9 108 10
22 24 21 32 -3 32 -11 0 -20 4 -20 9 0 5 9 13 20 16 27 9 25 21 -9 56 -24 24
-38 29 -75 29 -33 0 -46 -4 -46 -14z"/>
<path d="M1435 3664 c-4 -10 -11 -26 -16 -34 -5 -8 -13 -24 -18 -36 -5 -12
-29 -31 -52 -42 l-42 -21 46 -13 c26 -7 48 -19 49 -27 2 -10 23 -19 58 -26 37
-7 56 -16 58 -26 3 -18 -44 -33 -54 -18 -11 18 -25 8 -22 -13 2 -13 13 -27 26
-33 12 -5 22 -14 22 -20 0 -16 38 -36 45 -24 9 14 81 5 103 -12 45 -37 60 -40
77 -17 13 20 13 23 0 31 -8 4 -15 12 -15 17 0 21 37 8 85 -28 99 -75 147 -88
183 -49 18 19 21 32 18 72 -2 28 -9 69 -15 92 -15 56 -41 61 -151 28 -47 -13
-92 -25 -100 -25 -8 0 -26 -9 -40 -20 -20 -16 -22 -20 -7 -20 9 0 17 -4 17
-10 0 -14 -23 -13 -37 1 -9 9 -18 8 -38 -5 -19 -12 -30 -14 -44 -6 -11 5 -29
10 -40 10 -38 0 -11 28 34 35 25 3 47 10 50 15 3 4 29 11 58 15 49 7 149 54
163 77 5 8 -11 9 -57 3 -123 -15 -124 -15 -121 23 5 45 -11 62 -53 55 -39 -6
-108 18 -142 49 -22 20 -23 20 -28 2z"/>
<path d="M4226 3522 c-4 -6 -11 -57 -16 -114 -6 -57 -14 -118 -19 -136 -10
-34 -6 -62 9 -62 5 0 20 4 34 10 17 6 26 6 26 0 0 -6 -4 -11 -10 -11 -5 -1
-15 -2 -22 -3 -7 0 -23 -17 -36 -36 -23 -33 -24 -41 -18 -135 3 -55 12 -125
21 -155 8 -30 15 -58 15 -62 0 -5 -25 -8 -55 -8 -40 0 -55 -4 -55 -14 0 -31
70 -57 95 -36 8 7 29 10 47 7 18 -2 41 0 51 5 25 13 67 2 67 -17 0 -18 -5 -17
92 -19 45 -1 82 -7 92 -15 16 -14 63 -11 142 7 47 10 107 -7 163 -47 17 -12
48 -25 68 -27 21 -3 54 -12 73 -19 57 -21 120 2 69 25 -8 4 -34 17 -59 28 -25
12 -57 22 -71 22 -30 0 -42 20 -33 56 6 24 -11 35 -18 12 -3 -9 -18 -5 -51 12
-28 15 -45 30 -42 38 2 6 0 12 -6 12 -6 0 -25 11 -43 25 -18 14 -40 25 -50 25
-13 0 -15 7 -10 40 5 27 3 40 -5 40 -6 0 -14 -6 -17 -13 -6 -16 -56 -16 -62 1
-2 6 -15 12 -28 12 -28 0 -31 15 -6 29 14 9 13 10 -11 11 -15 0 -51 -12 -80
-27 -81 -43 -87 -45 -87 -25 0 12 13 23 38 31 20 8 49 22 64 32 14 11 33 19
41 19 8 0 26 9 40 20 14 11 32 20 41 20 11 0 16 9 16 27 0 20 3 24 11 16 7 -7
8 -19 4 -30 -5 -10 -9 -30 -10 -44 -2 -22 1 -25 24 -21 18 2 33 -3 45 -17 11
-12 27 -21 36 -21 9 0 21 -5 27 -11 11 -11 41 -9 136 9 63 12 76 25 52 52 -16
18 -16 20 -2 20 10 0 17 5 17 10 0 6 -10 8 -24 4 -16 -4 -34 1 -53 15 -18 13
-48 21 -83 23 -54 3 -55 3 -53 -24 1 -16 -3 -28 -10 -28 -17 1 -87 105 -87
129 0 11 -16 35 -35 54 -49 48 -47 76 3 41 13 -9 26 -13 30 -9 4 4 1 10 -6 12
-7 3 -17 13 -22 24 -9 15 -8 18 7 12 10 -3 27 -12 38 -20 31 -21 58 -17 50 7
-9 29 8 25 43 -11 26 -27 30 -28 36 -12 5 13 -2 26 -24 45 -30 28 -60 37 -60
18 0 -5 -11 -10 -24 -10 -14 0 -28 5 -31 10 -8 14 -48 13 -63 -2 -15 -15 -24
-6 -26 24 -1 21 -6 23 -61 26 -33 2 -64 7 -69 13 -6 5 -26 9 -46 9 -24 0 -43
7 -55 20 -10 11 -13 20 -7 20 19 0 14 34 -7 47 -28 17 -88 27 -95 15z"/>
<path d="M5000 3506 c-28 -7 -48 -19 -54 -32 -5 -12 -22 -30 -38 -40 -15 -10
-28 -22 -28 -26 0 -4 15 -18 33 -32 42 -33 83 -24 111 23 18 31 18 32 0 47
-18 14 -16 15 20 10 21 -3 47 -1 57 5 24 13 25 49 2 49 -10 0 -27 2 -38 4 -11
3 -40 -1 -65 -8z"/>
<path d="M770 3440 c0 -6 -18 -7 -44 -4 -27 4 -46 2 -50 -5 -4 -6 -18 -11 -32
-11 -31 0 -31 -16 1 -24 14 -4 25 -13 25 -22 0 -11 9 -15 33 -13 51 5 64 -10
30 -32 -44 -29 -107 -23 -82 8 9 10 6 13 -15 13 -17 0 -26 -5 -26 -16 0 -8 -4
-12 -10 -9 -6 3 -7 -1 -4 -10 12 -31 116 -49 141 -24 8 8 26 3 67 -16 62 -29
76 -27 76 14 0 29 -26 61 -51 61 -24 1 -52 28 -45 45 4 11 13 14 33 10 l28 -6
-30 25 c-32 28 -45 32 -45 16z"/>
<path d="M2670 3315 c0 -8 -9 -19 -20 -25 -11 -6 -20 -18 -20 -26 0 -12 8 -15
34 -12 29 3 37 0 45 -19 12 -27 29 -30 38 -8 5 13 19 15 86 10 45 -4 84 -8 88
-11 4 -2 21 -1 37 2 36 7 49 31 28 52 -12 13 -18 13 -30 2 -9 -7 -27 -10 -43
-7 -16 4 -57 12 -93 18 -36 6 -72 18 -81 25 -21 19 -69 18 -69 -1z"/>
<path d="M3428 3293 c-8 -10 -18 -25 -21 -33 -3 -10 -6 -7 -6 8 -1 23 -2 23
-103 18 -57 -2 -105 -5 -107 -5 -2 -1 2 -7 8 -15 7 -8 31 -16 54 -19 23 -2 68
-14 101 -27 l59 -22 28 28 c15 16 35 35 44 42 9 8 14 19 12 25 -6 20 -52 19
-69 0z"/>
<path d="M2193 3276 c-12 -6 -24 -18 -26 -28 -3 -11 -11 -16 -19 -13 -14 6
-58 -25 -58 -40 0 -5 13 -20 29 -34 23 -21 27 -30 20 -48 -6 -16 -17 -23 -34
-23 -18 0 -25 -5 -25 -20 0 -14 -5 -18 -16 -13 -11 4 -22 -1 -30 -12 -17 -24
-18 -81 -1 -92 6 -4 26 -26 42 -48 23 -31 31 -36 33 -22 8 41 58 1 61 -49 1
-16 3 -40 4 -53 1 -13 -4 -26 -10 -28 -9 -3 -13 6 -13 27 0 17 -4 29 -8 26 -5
-3 -6 -24 -3 -48 6 -40 10 -45 57 -69 43 -21 54 -24 69 -13 48 36 62 133 15
104 -12 -7 -17 0 -26 33 -7 30 -15 42 -28 42 -10 0 -30 17 -46 39 -23 31 -27
42 -18 56 9 14 7 22 -10 41 -23 24 -28 39 -13 39 16 0 71 -51 71 -66 0 -8 19
-35 41 -59 33 -35 45 -43 55 -34 8 6 11 15 8 20 -3 5 3 9 13 9 25 0 43 19 43
46 0 12 7 27 15 34 20 17 29 74 15 99 -14 27 -30 18 -30 -17 -1 -26 -1 -26
-15 -8 -8 11 -15 29 -15 40 0 23 -65 66 -98 66 -25 0 -30 6 -24 35 4 21 8 23
34 18 16 -3 39 -1 51 5 12 7 44 13 71 14 54 3 66 16 40 43 -11 11 -24 14 -38
9 -35 -12 -136 -16 -149 -7 -7 6 -21 5 -34 -1z"/>
<path d="M1701 3220 c-17 -57 -3 -76 64 -91 31 -7 58 -16 61 -21 3 -4 9 -8 15
-8 12 0 12 57 0 64 -5 3 -7 15 -4 26 4 14 0 20 -11 20 -16 0 -24 3 -82 33
l-31 16 -12 -39z"/>
<path d="M334 3225 c-19 -14 -18 -14 4 -15 27 0 28 -11 2 -28 -11 -7 -20 -21
-20 -31 0 -12 -11 -23 -31 -30 -44 -15 -36 -46 11 -47 48 0 70 6 70 21 0 8 8
11 20 8 11 -3 20 -11 20 -18 0 -7 7 -15 15 -19 25 -9 18 -38 -7 -35 -13 2 -29
0 -36 -5 -7 -4 -16 -5 -20 -1 -3 3 0 10 8 16 13 8 13 10 0 19 -19 12 -31 9
-44 -14 -8 -14 -8 -20 2 -23 6 -3 12 -14 12 -24 0 -18 5 -20 43 -14 39 6 43 4
54 -21 13 -28 11 -29 -56 -8 -21 6 -23 5 -19 -14 7 -25 3 -26 -39 -11 -23 7
-30 15 -26 28 4 15 -3 19 -34 23 -41 5 -55 -5 -51 -36 4 -28 36 -45 48 -26 5
8 13 11 17 6 4 -4 -7 -21 -25 -37 -17 -16 -32 -31 -32 -34 0 -10 36 -5 48 7 7
7 12 9 12 4 0 -4 -7 -14 -15 -22 -19 -19 -19 -38 -2 -56 8 -7 12 -18 10 -25
-2 -6 1 -14 6 -18 6 -3 8 -24 4 -52 -5 -37 -3 -48 11 -59 16 -11 16 -13 -2
-18 -11 -4 -26 -5 -33 -4 -15 3 -15 -8 -1 -85 6 -33 17 -53 33 -65 31 -22 89
-33 111 -21 12 7 25 5 40 -5 42 -26 65 -27 111 -6 53 25 91 90 52 90 -9 0 -18
7 -21 15 -4 9 -19 15 -39 15 -19 0 -37 5 -40 11 -4 6 -26 10 -49 8 -80 -4 -96
0 -96 20 0 11 -9 23 -20 26 -24 8 -25 18 -5 35 16 13 24 11 88 -21 13 -7 17
-5 17 10 0 11 -6 22 -12 24 -8 3 -5 6 5 6 33 2 56 -19 67 -59 9 -35 14 -40 40
-40 16 0 31 -4 34 -9 9 -14 87 -24 98 -13 7 7 7 37 -2 94 l-12 83 31 27 c28
25 67 36 96 27 6 -1 21 -2 35 -1 14 1 37 -4 52 -9 32 -13 78 12 78 42 0 20
-23 23 -70 10 -16 -5 -33 -2 -47 7 -20 12 -23 11 -35 -7 -19 -31 -38 -26 -80
20 -38 42 -46 63 -28 74 24 15 7 24 -35 18 -38 -5 -45 -3 -45 11 0 16 -13 20
-62 16 -19 -1 -28 3 -28 13 0 21 95 34 116 16 13 -11 18 -10 25 4 6 9 17 17
24 17 8 0 15 5 15 10 0 6 -26 11 -57 11 -94 2 -117 10 -128 45 -11 34 -33 64
-46 64 -5 0 -18 9 -29 20 -16 16 -17 20 -5 20 18 0 19 19 1 43 -16 20 -32 22
-40 5 -5 -10 -7 -10 -12 0 -8 16 -26 15 -50 -3z"/>
<path d="M2630 3158 c0 -37 5 -49 24 -61 47 -31 131 -74 159 -81 15 -3 27 -13
27 -22 0 -8 6 -17 14 -20 17 -7 27 -28 32 -71 4 -28 0 -35 -27 -48 -25 -13
-28 -19 -18 -31 10 -12 5 -14 -32 -15 -75 -1 -123 -13 -127 -32 -5 -26 35 -76
61 -75 102 6 165 -12 97 -27 -60 -13 -26 -26 43 -16 25 4 -8 64 -48 87 -10 6
-20 15 -22 20 -5 15 56 44 93 44 22 0 37 6 40 15 9 23 36 18 69 -13 36 -32 44
-35 117 -36 46 0 58 -4 61 -18 5 -18 37 -26 37 -9 0 15 70 53 89 48 13 -3 17
2 17 17 -1 21 5 23 37 11 9 -4 17 -3 17 3 0 6 -9 14 -20 17 -11 3 -20 10 -20
14 0 8 63 33 77 30 21 -4 33 2 33 16 0 8 5 15 10 15 6 0 10 5 10 10 0 6 -11 3
-25 -6 -13 -9 -33 -13 -43 -9 -15 4 -31 -6 -61 -37 -32 -34 -43 -40 -53 -30
-6 6 -20 12 -30 12 -28 0 -22 13 25 54 30 26 48 35 62 31 37 -12 49 -10 53 6
4 21 -68 35 -83 16 -9 -12 -81 -57 -91 -57 -2 0 -4 16 -4 35 0 23 6 39 19 47
18 11 18 13 -11 40 -17 16 -34 26 -37 22 -3 -4 0 -9 7 -11 18 -7 15 -33 -5
-40 -10 -3 -26 -13 -35 -21 -10 -8 -24 -12 -33 -8 -22 8 -9 26 18 26 l22 1
-24 19 c-13 11 -34 20 -48 20 -20 0 -23 -4 -18 -20 6 -18 2 -20 -38 -20 -25 0
-49 6 -56 13 -14 17 -4 27 26 27 26 0 32 27 7 37 -8 3 -14 13 -11 23 5 18 -49
55 -58 39 -4 -5 -1 -9 4 -9 6 0 11 -7 11 -15 0 -17 -16 -20 -25 -5 -3 6 -18
10 -33 10 -25 0 -109 37 -136 59 -7 6 -42 13 -79 17 l-67 7 0 -45z m470 -209
c25 -11 55 -17 67 -14 13 3 23 1 23 -3 0 -17 -52 -62 -71 -62 -10 0 -30 -5
-44 -12 -22 -10 -28 -9 -40 8 -7 11 -32 26 -55 33 -41 12 -68 49 -54 73 9 14
121 0 174 -23z"/>
<path d="M3206 3187 c-15 -11 -17 -17 -7 -35 11 -20 9 -22 -19 -22 -23 0 -30
4 -30 20 0 31 -28 36 -61 11 -16 -12 -34 -19 -39 -16 -6 3 -10 3 -10 0 0 -12
45 -44 61 -45 9 0 22 -7 30 -16 9 -11 22 -14 41 -10 16 3 37 0 48 -6 15 -10
22 -9 38 5 10 9 28 17 40 17 27 0 28 20 2 43 -11 9 -20 26 -20 37 0 11 -6 20
-14 20 -8 0 -20 2 -28 5 -7 3 -22 -1 -32 -8z"/>
<path d="M1371 2994 c-52 -42 -81 -76 -81 -98 0 -22 22 -20 53 4 30 24 37 25
37 5 0 -8 7 -15 16 -15 15 0 15 2 0 25 -27 42 -8 48 31 10 20 -19 40 -35 46
-35 5 0 7 -14 3 -32 -4 -23 -3 -28 4 -18 8 13 13 13 37 -2 15 -9 29 -23 29
-30 1 -7 2 -21 3 -30 0 -9 9 -19 19 -22 9 -3 0 -4 -21 -1 -45 5 -56 -12 -33
-47 9 -14 13 -28 9 -32 -5 -4 0 -14 10 -21 20 -15 20 -46 0 -53 -7 -2 -13 4
-13 14 0 14 -3 15 -12 6 -8 -8 -15 -8 -24 -1 -21 17 -33 2 -21 -26 14 -28 22
-31 31 -10 6 18 26 20 26 3 0 -6 -7 -19 -15 -28 -12 -13 -13 -23 -6 -44 13
-32 16 -32 53 -1 29 25 58 33 58 16 0 -4 -13 -25 -30 -46 -16 -21 -30 -48 -30
-61 0 -26 71 -104 94 -104 13 0 46 51 46 70 0 4 -14 13 -30 20 -32 13 -57 47
-44 58 4 4 9 1 11 -5 6 -18 23 -16 23 2 0 8 -4 15 -10 15 -5 0 -10 7 -10 16 0
18 46 39 109 49 39 6 43 5 37 -10 -3 -10 -2 -23 3 -29 5 -6 11 -27 13 -46 2
-24 9 -36 21 -38 17 -3 25 27 11 41 -4 4 -8 25 -10 47 -4 38 -3 39 15 28 11
-7 22 -19 25 -28 35 -92 30 -117 -25 -122 -23 -2 -40 1 -43 8 -5 14 -93 64
-112 64 -8 0 -4 -10 11 -26 29 -32 30 -40 9 -83 -9 -18 -14 -35 -11 -37 3 -3
21 -1 41 4 20 6 34 7 31 2 -3 -4 15 -30 40 -56 24 -27 40 -51 34 -53 -6 -2
-14 1 -18 6 -11 18 -78 25 -84 10 -6 -17 1 -28 27 -43 29 -16 31 -33 4 -43
-22 -10 -22 -10 -1 -10 12 -1 24 5 26 12 4 8 12 4 25 -12 15 -19 33 -26 77
-31 53 -6 58 -5 81 23 13 16 24 34 24 42 0 7 17 30 38 51 21 22 47 59 57 83
l19 44 -34 29 c-19 16 -34 36 -32 44 2 9 -3 23 -10 31 -11 14 -10 16 15 9 19
-4 27 -3 27 7 0 8 9 22 19 32 26 23 27 135 1 135 -9 0 -21 5 -28 12 -9 9 -12
8 -12 -6 0 -12 -5 -16 -19 -11 -10 3 -23 -1 -31 -10 -9 -11 -17 -12 -32 -4
-14 8 -17 14 -9 23 19 23 -10 33 -88 30 -82 -3 -116 8 -106 34 6 16 5 16 -11
0 -15 -14 -15 -19 -4 -33 12 -14 11 -18 -1 -26 -8 -5 -25 -9 -39 -9 -15 0 -31
-5 -38 -12 -9 -9 -15 -9 -24 0 -7 7 -8 12 -3 12 6 0 17 4 25 10 12 8 12 11 -3
28 -29 32 -12 52 44 52 27 0 49 5 49 10 0 6 8 10 18 10 10 0 37 16 59 35 23
19 52 35 65 35 13 0 33 6 43 14 18 13 17 15 -18 29 -37 16 -46 30 -27 42 16
10 12 52 -6 59 -8 3 -31 -1 -51 -9 -20 -8 -39 -12 -42 -9 -3 4 0 9 7 11 6 3
12 11 12 19 0 10 -14 14 -51 14 -43 0 -54 -4 -71 -25 -11 -14 -25 -25 -31 -25
-7 0 -23 -16 -37 -35 -14 -19 -30 -35 -36 -35 -19 0 -25 43 -9 53 8 4 15 14
15 21 0 19 31 44 60 48 14 2 26 11 28 21 3 14 -5 17 -51 17 -55 0 -76 -12 -90
-51 -5 -16 -59 -49 -79 -49 -4 0 -8 11 -8 24 0 14 -5 28 -10 31 -15 9 -1 27
16 21 7 -3 18 4 24 14 10 18 7 20 -32 19 -33 0 -53 -8 -87 -35z"/>
<path d="M4991 2991 c-12 -8 -10 -12 12 -22 28 -13 35 -33 15 -45 -7 -5 -20 3
-31 18 -18 24 -20 25 -49 11 -18 -9 -27 -21 -24 -29 3 -7 -1 -29 -9 -48 -20
-46 -19 -66 2 -66 9 0 27 -10 40 -22 l24 -22 6 22 c8 32 20 27 27 -13 4 -19
11 -35 16 -35 4 0 15 -3 24 -6 12 -5 16 0 16 20 0 15 6 29 14 32 8 3 18 19 21
35 4 16 11 31 16 34 5 4 9 31 9 60 0 50 -2 56 -30 70 -32 17 -78 19 -99 6z"/>
<path d="M37 2853 c-14 -13 -6 -23 18 -23 16 0 25 -6 25 -16 0 -10 -8 -15 -22
-14 -60 5 -58 8 -58 -100 0 -63 4 -100 10 -100 6 0 10 6 9 13 -4 35 1 40 41
34 30 -4 40 -2 40 9 0 17 5 17 30 4 15 -8 17 -7 13 12 -4 11 -14 23 -25 25
-31 9 -20 23 20 23 27 0 33 3 22 10 -8 5 -25 10 -37 10 -30 0 -29 14 2 28 31
14 32 38 3 48 -13 3 -35 15 -50 25 -29 21 -32 22 -41 12z"/>
<path d="M3595 2768 c4 -18 8 -46 10 -63 1 -16 5 -40 9 -52 5 -15 1 -25 -12
-35 -11 -7 -21 -22 -24 -33 -2 -11 -11 -19 -21 -19 -21 2 -20 4 -2 -38 14 -34
13 -36 -11 -59 -18 -17 -41 -25 -81 -29 -32 -3 -58 -10 -61 -17 -2 -7 4 -13
13 -13 19 0 17 -34 -3 -36 -6 -1 -15 -2 -18 -3 -10 -2 73 -81 85 -81 6 0 11
-12 11 -27 0 -38 14 -57 36 -49 13 5 14 10 6 18 -8 8 -5 16 13 30 14 11 22 25
18 33 -4 11 4 17 26 21 18 4 36 14 40 23 5 9 30 25 56 35 39 17 45 23 40 40
-4 12 -6 69 -5 127 1 112 -17 206 -45 229 -12 10 -16 8 -23 -11 -8 -22 -9 -21
-15 9 -5 24 -12 32 -28 32 -19 0 -21 -4 -14 -32z"/>
<path d="M3336 2656 c-7 -36 -21 -46 -66 -46 -15 0 -40 -7 -56 -15 -23 -12
-31 -12 -44 -2 -16 14 -31 15 -67 2 -26 -8 -31 -25 -9 -25 8 0 18 -5 22 -11 5
-8 -3 -10 -25 -7 -28 4 -33 1 -47 -28 -9 -18 -13 -38 -9 -43 3 -6 2 -11 -2
-11 -5 0 -14 -9 -21 -21 -23 -37 0 -49 94 -49 72 0 85 3 94 19 17 33 12 41
-26 41 -50 0 -114 20 -114 36 0 7 16 16 35 20 22 4 35 12 35 21 0 13 9 15 47
10 26 -3 49 -10 51 -16 8 -25 32 -10 32 21 0 29 1 30 18 15 19 -18 34 -14 27
6 -3 7 11 19 30 28 19 9 35 13 35 8 0 -5 5 -9 10 -9 6 0 10 7 10 15 0 8 4 15
9 15 5 0 11 9 14 19 3 13 -3 22 -20 30 -39 18 -50 13 -57 -23z"/>
<path d="M4330 2665 c-7 -8 -10 -25 -8 -37 4 -20 0 -23 -30 -23 -44 0 -62 -23
-44 -57 10 -19 20 -23 55 -22 23 1 62 7 87 13 25 7 68 17 95 23 76 15 105 48
43 48 -18 0 -51 9 -73 19 -99 47 -113 51 -125 36z"/>
<path d="M2755 2640 c-11 -4 -30 -6 -43 -3 -22 5 -22 3 -16 -38 9 -69 24 -99
48 -99 15 0 17 -3 8 -9 -20 -12 -10 -46 13 -46 11 0 23 -4 26 -9 4 -4 17 -1
30 7 31 19 87 29 94 17 13 -20 54 -10 79 20 29 35 26 55 -10 64 -31 8 -31 31
2 61 15 14 21 25 14 25 -16 0 -78 -19 -102 -31 -24 -12 -25 -12 -31 11 -3 13
-14 20 -30 20 -14 0 -29 5 -32 10 -7 12 -22 12 -50 0z"/>
<path d="M70 2613 c-8 -4 -21 -14 -28 -25 -7 -10 -20 -18 -28 -18 -9 0 -14
-11 -14 -30 0 -26 4 -30 26 -30 14 0 34 5 45 10 28 16 45 1 20 -17 -30 -21
-19 -30 46 -37 32 -4 72 -9 88 -13 29 -5 29 -5 14 13 -24 27 -59 92 -59 109 0
13 -24 19 -57 14 -3 0 -10 6 -15 15 -10 17 -14 18 -38 9z"/>
<path d="M848 2552 c-47 -2 -68 -7 -68 -16 0 -13 53 -56 70 -56 6 0 30 -18 54
-40 49 -45 71 -52 60 -17 -4 12 -7 33 -6 46 2 28 -18 79 -33 83 -5 2 -40 2
-77 0z"/>
<path d="M4097 2543 c-11 -11 -8 -86 6 -125 15 -43 27 -59 27 -36 0 23 29 31
54 14 34 -22 56 0 56 55 -1 48 -16 66 -79 87 -39 14 -55 15 -64 5z"/>
<path d="M690 2439 c-18 -23 -29 -29 -46 -25 -13 4 -26 2 -29 -4 -3 -5 0 -10
7 -10 8 0 20 -9 28 -20 8 -11 19 -20 25 -20 5 0 30 -16 54 -35 24 -19 49 -35
56 -35 6 0 20 -8 29 -19 30 -33 74 -35 118 -6 29 19 38 32 36 48 -2 16 -9 21
-25 19 -16 -2 -23 2 -23 12 0 9 7 16 15 16 29 0 13 15 -43 41 -41 19 -68 25
-94 22 -33 -5 -38 -2 -38 15 0 18 -18 32 -39 32 -5 0 -19 -14 -31 -31z"/>
<path d="M4588 2454 c-15 -15 -15 -19 4 -56 11 -21 18 -41 16 -44 -3 -2 -13
11 -22 29 -20 44 -30 51 -93 65 -71 16 -96 4 -111 -54 -10 -38 -10 -47 6 -64
9 -11 19 -33 22 -48 4 -19 17 -33 46 -47 22 -11 51 -28 65 -38 23 -18 24 -18
5 -33 -18 -13 -23 -10 -63 33 l-43 48 -24 -27 c-14 -16 -34 -28 -46 -28 -14 0
-20 -7 -20 -22 0 -14 -3 -18 -8 -12 -12 19 -52 27 -67 14 -9 -7 -15 -29 -15
-51 0 -34 3 -39 34 -50 43 -15 37 -29 -12 -29 -28 0 -33 -3 -24 -12 7 -7 12
-18 12 -24 0 -12 -53 -44 -74 -44 -6 -1 -22 -10 -35 -21 -21 -17 -22 -23 -12
-42 21 -39 43 -47 87 -32 22 8 46 14 54 15 9 0 21 5 28 12 14 14 80 38 105 38
9 0 17 4 17 8 0 21 -27 62 -50 76 -14 8 -19 16 -12 16 12 0 69 -36 82 -51 8
-10 100 -17 105 -8 6 8 -16 40 -47 68 -10 8 -18 24 -18 34 0 10 -9 27 -20 39
-26 28 -20 32 23 14 29 -12 36 -21 39 -48 3 -28 5 -30 12 -13 4 11 12 30 18
42 6 12 8 35 6 52 -3 17 -4 31 -3 31 1 0 16 -7 34 -16 23 -11 35 -13 45 -5 9
7 16 7 24 -1 8 -8 5 -18 -9 -38 -11 -14 -21 -33 -23 -42 -1 -8 -9 -26 -17 -39
-8 -13 -21 -39 -28 -56 -8 -18 -17 -33 -22 -33 -5 0 -9 -6 -9 -13 0 -19 -72
-57 -109 -57 -18 0 -34 -6 -37 -14 -4 -9 -29 -17 -74 -21 -86 -9 -109 -23 -93
-58 10 -22 9 -26 -13 -36 -25 -11 -28 -21 -18 -57 15 -58 198 -23 318 60 16
11 39 21 50 23 12 1 37 5 56 9 19 3 56 6 82 5 40 -1 49 2 65 26 11 16 27 48
37 72 25 66 63 110 87 104 13 -4 36 6 64 26 24 17 52 31 62 31 10 0 27 7 37
15 11 8 28 15 38 15 13 0 18 8 18 30 0 26 -4 30 -27 30 -16 0 -35 -4 -42 -9
-16 -10 -49 3 -64 23 -5 7 -12 5 -21 -6 -17 -23 -51 -23 -85 1 -16 12 -36 18
-48 15 -12 -3 -24 -1 -28 6 -4 7 -11 8 -19 1 -15 -12 -86 9 -86 26 0 23 -23
63 -40 68 -15 5 -40 44 -40 62 0 3 22 -15 50 -41 27 -25 58 -46 70 -46 19 0
21 3 24 30 1 6 -10 16 -24 23 -14 7 -26 22 -28 34 -2 11 -12 29 -22 38 -18 16
-20 16 -26 1 -10 -27 -21 -18 -27 22 -4 21 -12 45 -19 55 -12 16 -14 16 -30 1z"/>
<path d="M2192 2417 c-27 -29 -33 -123 -7 -113 17 6 21 -9 5 -19 -5 -3 -10
-15 -10 -26 0 -35 40 -19 67 26 78 132 79 155 10 155 -33 0 -49 -6 -65 -23z"/>
<path d="M561 2377 c-5 -5 -7 -16 -3 -25 4 -11 1 -14 -11 -9 -11 4 -17 1 -17
-7 0 -18 92 -86 157 -117 29 -13 52 -29 53 -34 0 -12 11 -20 83 -65 54 -34 78
-29 70 13 -5 23 -49 57 -74 57 -15 0 -82 50 -76 57 6 5 42 -14 70 -37 16 -12
19 -12 27 0 6 10 5 16 -3 19 -7 2 -21 11 -32 21 -11 10 -56 42 -101 72 -82 56
-125 73 -143 55z"/>
<path d="M3290 2334 c6 -14 10 -28 10 -31 0 -3 -49 -3 -109 1 -92 6 -109 5
-114 -8 -4 -10 -13 -13 -23 -9 -9 3 -19 1 -23 -4 -17 -26 -45 -31 -84 -16 -21
9 -40 13 -43 10 -10 -10 26 -66 46 -72 11 -4 27 -20 35 -36 18 -34 10 -32 155
-34 63 0 128 -5 143 -9 24 -7 29 -5 34 13 8 33 33 26 33 -9 0 -33 19 -40 40
-15 19 23 33 18 26 -10 -5 -20 -3 -25 12 -25 60 0 84 77 38 123 l-24 24 -13
-31 c-19 -42 -33 -39 -37 9 -2 23 -10 46 -20 54 -15 12 -14 13 13 6 16 -3 34
-7 40 -8 17 -3 15 37 -3 60 -19 21 -78 43 -119 43 -20 0 -21 -3 -13 -26z"/>
<path d="M510 2297 c0 -11 -9 -21 -20 -24 -22 -6 -26 -23 -9 -40 6 -6 8 -16 4
-23 -5 -8 -11 -6 -19 5 -7 9 -36 23 -66 31 -57 15 -58 14 -112 -29 -27 -22
-22 -27 27 -27 52 0 59 -13 14 -29 -38 -13 -33 -36 7 -36 34 0 46 -12 38 -38
-6 -20 21 -57 43 -57 7 0 13 -7 13 -15 0 -10 10 -15 31 -15 24 0 30 3 25 16
-3 9 -6 18 -6 20 0 2 -7 4 -15 4 -8 0 -17 12 -20 28 -4 15 -10 35 -16 44 -16
30 -10 38 24 34 17 -2 40 -4 50 -5 28 -2 19 -21 -10 -22 -16 0 -22 -3 -15 -6
6 -2 12 -14 12 -26 1 -12 7 -33 15 -47 18 -32 18 -40 0 -40 -21 0 -19 -27 3
-34 9 -3 -1 -3 -23 -1 -22 2 -35 2 -28 -1 7 -3 17 -21 23 -40 6 -19 17 -34 25
-34 7 0 15 -6 18 -14 5 -12 72 -48 147 -78 65 -26 98 -47 153 -95 27 -24 57
-43 66 -43 9 0 25 -7 35 -15 11 -8 27 -15 37 -15 19 0 53 -46 40 -54 -4 -3 -6
-16 -4 -28 2 -13 -9 -52 -26 -88 -17 -36 -31 -70 -31 -76 0 -7 -11 -22 -25
-35 -13 -13 -25 -31 -25 -39 -1 -17 -60 -67 -60 -51 0 20 -27 11 -40 -14 l-13
-25 -12 23 c-8 15 -8 27 -1 39 7 12 7 21 -1 29 -21 21 4 62 56 91 27 15 57 40
66 55 10 16 27 35 37 44 28 25 28 63 0 67 -12 2 -29 15 -36 30 -18 34 -75 85
-135 119 -25 15 -49 31 -52 36 -4 5 -11 7 -17 3 -6 -3 -14 -1 -17 4 -10 16
-52 30 -70 24 -10 -4 -13 -14 -9 -30 7 -28 -10 -32 -25 -6 -9 15 -10 14 -11
-9 0 -14 4 -29 10 -35 6 -6 6 -15 0 -24 -8 -12 -13 -13 -27 -2 -33 23 -46 25
-65 13 -15 -10 -27 -10 -47 -1 -23 9 -38 7 -84 -10 l-55 -21 1 -56 c1 -59 6
-64 68 -77 14 -3 44 -25 68 -48 l42 -43 18 24 c24 31 30 18 21 -44 -6 -40 -9
-46 -15 -27 -4 12 -14 22 -21 22 -22 0 -16 -38 6 -45 13 -4 20 -15 20 -32 0
-16 7 -27 19 -30 31 -8 55 -83 31 -98 -20 -12 -10 -50 16 -62 22 -10 33 -9 69
8 24 11 51 29 61 40 25 28 38 24 50 -18 16 -51 7 -153 -12 -146 -16 6 -19 -22
-4 -32 6 -3 10 -17 10 -31 0 -19 5 -24 23 -24 19 0 26 -8 35 -38 7 -21 20 -45
29 -53 19 -15 122 -54 127 -48 64 85 75 113 51 139 -22 24 -11 64 31 115 32
40 56 115 36 115 -5 0 -9 25 -9 58 1 31 -5 71 -13 89 -13 29 -12 36 7 75 12
24 25 64 28 90 6 39 4 52 -14 74 -15 19 -21 41 -21 79 0 63 -23 89 -88 99 -24
3 -51 10 -60 15 -9 5 -29 14 -44 21 -35 16 -132 110 -123 118 4 4 10 1 12 -5
10 -27 24 -12 18 17 -5 23 -3 30 9 30 25 0 19 14 -13 28 -33 15 -81 56 -81 71
0 18 37 21 73 6 39 -16 67 -11 67 12 0 8 -4 11 -10 8 -5 -3 -10 0 -10 7 0 7
-32 38 -71 68 -39 30 -89 72 -112 93 -22 20 -47 37 -54 37 -7 0 -19 12 -27 28
-12 21 -15 23 -16 9z"/>
<path d="M3658 2273 c-9 -10 -14 -23 -11 -29 2 -6 -6 -19 -17 -29 -11 -10 -20
-27 -20 -37 0 -16 -3 -17 -21 -7 -17 9 -24 8 -36 -4 -12 -12 -13 -24 -5 -63 6
-27 14 -58 18 -68 6 -15 4 -18 -8 -14 -8 4 -21 2 -28 -2 -11 -7 -11 -11 -1
-24 17 -20 37 -20 48 -1 7 11 16 12 51 3 33 -8 46 -8 55 2 10 10 7 11 -12 5
l-24 -7 22 23 c28 30 27 45 -6 74 -16 13 -26 26 -23 29 3 2 21 -9 40 -25 56
-50 66 -39 61 71 -1 52 -8 101 -13 108 -15 18 -52 15 -70 -5z"/>
<path d="M13 2263 c-10 -3 -13 -70 -13 -283 l0 -278 85 -7 c75 -6 88 -4 118
13 30 20 77 66 77 77 0 18 47 65 69 70 39 9 60 29 67 63 6 28 3 32 -20 38 -15
3 -30 3 -34 0 -3 -4 4 -9 16 -13 26 -6 30 -41 6 -50 -22 -8 -33 6 -36 50 -2
30 -8 40 -32 52 -40 20 -87 20 -80 0 4 -8 1 -15 -5 -15 -6 0 -14 14 -18 30 -4
21 -13 32 -29 36 -13 3 -24 10 -24 14 0 5 -3 15 -6 24 -5 13 1 16 30 16 41 0
46 11 14 33 -20 13 -21 18 -10 36 6 11 12 23 12 26 0 10 -46 5 -58 -7 -10 -10
-17 -10 -32 0 -11 6 -31 12 -45 12 -18 0 -25 5 -25 19 0 11 5 21 12 23 6 2 8
10 4 16 -7 12 -22 14 -43 5z"/>
<path d="M1430 2170 c-8 -5 -27 -10 -42 -10 -15 0 -30 -4 -33 -10 -3 -5 -17
-10 -29 -10 -20 0 -24 -6 -29 -51 -6 -51 6 -89 29 -89 6 0 17 -7 24 -15 18
-21 63 -19 91 6 29 25 65 44 100 53 29 6 48 36 24 36 -7 0 -17 -4 -20 -10 -8
-13 -72 -13 -80 0 -4 6 11 18 32 28 29 13 37 22 35 38 -2 13 -12 24 -25 27
-12 3 -31 8 -42 11 -11 4 -27 2 -35 -4z"/>
<path d="M2830 2132 c0 -11 13 -48 29 -83 16 -35 31 -72 35 -81 10 -32 31 -19
64 39 38 65 45 98 21 98 -9 0 -23 5 -30 11 -8 6 -27 14 -44 17 -16 3 -40 8
-52 12 -19 6 -23 4 -23 -13z"/>
<path d="M1680 2038 c-14 -6 -43 -12 -65 -13 -23 -1 -55 -10 -72 -19 -18 -9
-38 -16 -46 -16 -8 0 -22 -9 -32 -20 -10 -11 -24 -20 -31 -20 -20 0 -27 -19
-13 -36 23 -28 -1 -28 -31 1 -37 36 -62 29 -53 -16 5 -29 4 -31 -16 -24 -20 6
-21 3 -21 -47 0 -29 -3 -64 -7 -77 -5 -20 -3 -22 11 -14 38 21 136 117 136
133 0 10 8 20 18 23 12 2 22 18 26 38 6 31 8 32 20 17 7 -10 23 -18 34 -18 12
0 25 -7 30 -16 8 -15 12 -15 38 -1 16 9 51 34 78 57 27 22 56 45 65 50 14 9
14 11 1 20 -19 12 -38 12 -70 -2z"/>
<path d="M3122 2041 c-34 -21 -22 -159 12 -153 16 3 16 1 -1 -24 l-17 -27 44
6 c100 15 156 43 173 89 8 21 -11 34 -26 19 -6 -6 -19 -11 -29 -11 -11 0 -29
-11 -41 -24 -28 -30 -48 -21 -45 20 1 16 1 48 0 72 -2 39 -4 42 -29 42 -16 0
-34 -4 -41 -9z"/>
<path d="M1911 1997 c-17 -21 -5 -103 21 -139 18 -26 107 -94 112 -86 1 1 11
23 21 48 11 25 29 60 42 79 27 42 23 51 -23 49 -28 -1 -40 5 -57 26 -27 34
-95 47 -116 23z"/>
<path d="M3633 1924 c-19 -8 -16 -31 9 -54 l22 -20 -23 0 c-19 0 -22 -4 -18
-22 5 -20 3 -20 -18 6 l-24 30 -11 -26 c-15 -31 -1 -63 31 -73 15 -5 19 -13
15 -28 -5 -22 9 -57 24 -57 14 0 13 37 -1 46 -18 11 11 24 54 24 31 0 37 3 37
22 0 12 7 29 15 38 21 23 10 105 -14 108 -9 1 -32 4 -51 6 -19 3 -41 3 -47 0z"/>
<path d="M1545 1820 c-28 -17 -58 -27 -67 -24 -20 6 -25 -12 -5 -19 6 -3 3 -6
-9 -6 -28 -1 -56 -34 -52 -62 5 -37 25 -33 54 10 33 50 90 95 111 87 13 -5 13
-9 2 -22 -7 -8 -25 -22 -40 -29 -25 -13 -45 -54 -40 -83 2 -13 -23 -25 -76
-37 -29 -6 -33 -4 -33 15 0 18 -4 21 -22 16 -13 -4 -36 -9 -52 -13 l-29 -6 6
-71 c3 -39 17 -116 32 -171 15 -55 31 -117 36 -139 l10 -38 25 23 c31 29 27
62 -16 129 -17 26 -30 50 -30 54 0 9 34 -10 55 -30 9 -9 18 -14 21 -11 3 3
-10 20 -28 39 -18 18 -44 48 -56 66 -38 52 -3 39 58 -23 30 -30 61 -55 68 -55
8 0 34 -18 59 -40 45 -39 63 -43 63 -13 0 13 3 13 15 3 13 -11 15 -7 15 29 0
31 -4 41 -16 41 -11 0 -14 5 -10 16 4 9 13 48 22 85 14 60 21 74 55 101 22 18
55 37 74 44 32 11 35 10 35 -7 0 -25 17 -24 32 1 7 11 19 20 26 20 7 0 17 12
22 28 19 50 33 72 48 72 12 0 14 -10 9 -50 -8 -63 -41 -113 -68 -105 -14 5
-32 -4 -59 -27 -22 -18 -55 -46 -75 -61 -68 -55 -88 -156 -44 -219 l21 -29 35
21 c43 25 45 25 41 -2 -4 -30 26 -35 48 -9 12 13 22 17 29 11 14 -12 49 23 97
97 23 35 38 49 45 42 14 -14 45 24 37 45 -5 14 -14 16 -45 11 -47 -8 -62 14
-34 45 26 28 45 110 31 132 -5 9 -6 21 -2 25 5 4 11 2 13 -4 7 -19 23 -16 23
5 0 10 -8 24 -18 32 -102 85 -115 93 -130 83 -9 -5 -19 -19 -22 -30 -5 -20 -6
-20 -80 5 -71 23 -76 24 -103 8 -36 -20 -64 -22 -48 -3 10 13 6 28 -8 26 -3 0
-28 -13 -56 -29z"/>
<path d="M4013 1818 c-6 -7 -13 -41 -17 -75 -7 -59 -6 -63 13 -63 21 0 84 32
112 56 24 21 13 73 -18 85 -34 13 -79 11 -90 -3z"/>
<path d="M3060 1755 c-14 -8 -21 -14 -15 -15 5 0 4 -5 -3 -12 -16 -16 -15 -73
1 -85 27 -22 69 -24 113 -6 41 17 55 35 35 47 -4 3 -6 16 -4 29 3 13 -1 28 -9
34 -23 18 -91 23 -118 8z"/>
<path d="M4651 1708 c-9 -14 -19 -17 -49 -12 -26 4 -51 -1 -87 -16 -38 -17
-172 -50 -201 -50 -7 0 -4 -34 6 -72 6 -21 26 -54 45 -73 29 -32 36 -35 55
-25 25 13 39 5 22 -12 -20 -20 -14 -44 13 -56 50 -23 79 -8 96 51 6 17 27 46
47 62 36 30 36 25 0 -27 -20 -28 -24 -58 -8 -58 6 0 10 7 10 15 0 8 11 22 25
32 15 10 45 36 68 58 23 23 58 52 77 65 38 26 90 76 90 86 0 3 -19 3 -43 0
-35 -5 -52 -1 -98 22 -54 27 -57 28 -68 10z"/>
<path d="M13 1653 c-9 -3 -13 -34 -13 -106 l0 -102 31 -14 c28 -12 32 -11 50
8 11 11 31 21 44 21 16 0 25 6 25 15 0 8 6 15 13 16 6 0 2 5 -11 11 -18 9 -22
17 -18 34 9 33 -24 86 -65 106 -37 19 -38 19 -56 11z"/>
<path d="M3235 1652 c-11 -4 -33 -18 -48 -32 -16 -14 -43 -27 -60 -30 -22 -3
-33 -11 -35 -25 -2 -11 -10 -27 -18 -36 -8 -9 -11 -19 -7 -22 3 -4 -3 -17 -14
-30 -25 -27 -53 -81 -53 -102 0 -9 9 -15 22 -15 20 0 20 -1 5 -18 -25 -28 -21
-42 13 -42 36 0 40 -17 5 -26 -36 -9 -31 -27 15 -53 46 -26 70 -22 100 16 26
33 25 43 -2 44 -19 1 -20 2 -5 6 11 3 26 12 35 21 16 15 15 18 -10 45 -23 24
-30 26 -46 16 -21 -13 -92 -4 -92 12 0 27 22 49 50 49 28 0 29 2 18 20 -9 14
-9 23 -2 30 14 14 52 -6 101 -53 l37 -37 13 23 c7 12 12 30 13 40 0 20 11 22
28 5 15 -15 79 5 117 38 15 13 32 25 38 27 14 5 16 3 -49 50 -55 40 -81 46
-90 22 -9 -23 -27 -18 -21 7 7 25 -8 58 -26 57 -7 -1 -21 -4 -32 -7z"/>
<path d="M4064 1617 c-79 -9 -81 -10 -92 -41 -16 -45 -13 -106 4 -106 8 0 14
4 14 10 0 5 9 24 21 42 l20 33 -6 -45 -7 -45 42 -19 c28 -12 52 -16 75 -12
l34 7 -10 -30 c-9 -26 -14 -29 -39 -25 -43 9 -44 -10 0 -77 22 -34 40 -67 40
-73 0 -15 45 -66 59 -66 6 0 22 -18 36 -40 31 -49 49 -52 42 -7 -4 24 2 43 25
80 37 57 52 122 32 138 -7 6 -16 24 -19 40 -4 16 -12 29 -18 29 -7 0 -19 15
-28 33 -9 17 -23 31 -30 30 -10 -2 -14 10 -14 48 0 42 -4 53 -25 69 -40 31
-70 36 -156 27z"/>
<path d="M2289 1580 c-1 -8 0 -25 1 -37 1 -13 -3 -23 -8 -23 -5 0 -13 -10 -17
-22 l-8 -23 -4 23 c-3 16 -18 30 -48 43 -44 20 -67 17 -97 -9 -19 -16 -24 -52
-8 -52 6 0 10 -6 10 -14 0 -8 8 -17 19 -21 10 -3 46 -32 80 -65 33 -33 66 -60
72 -60 12 0 3 53 -10 58 -5 1 -6 14 -3 28 l5 25 18 -31 c11 -17 19 -37 19 -44
0 -7 7 -19 15 -26 26 -21 30 32 5 79 -11 23 -20 50 -18 59 1 9 -1 23 -6 30 -5
8 -3 24 5 38 11 21 10 27 -4 41 -14 14 -17 15 -18 3z"/>
<path d="M4871 1555 c-13 -11 -33 -30 -45 -43 -11 -12 -38 -39 -58 -60 -28
-28 -35 -43 -32 -62 2 -14 1 -30 -3 -36 -15 -19 -94 -54 -124 -54 -17 0 -39
-4 -49 -10 -23 -12 -70 -96 -70 -125 0 -29 59 -75 97 -74 15 0 74 -1 131 -1
87 -1 108 2 140 20 40 23 92 87 115 142 8 20 20 39 27 43 6 4 15 18 20 31 5
13 14 24 20 24 15 0 12 -43 -5 -66 -17 -22 -19 -44 -5 -44 5 0 20 21 32 46 16
35 19 51 11 63 -6 10 -14 56 -18 103 l-7 86 -37 15 c-59 25 -112 26 -140 2z"/>
<path d="M2795 1473 c-16 -9 -34 -21 -40 -28 -5 -6 -22 -19 -37 -28 -24 -15
-28 -24 -28 -61 0 -41 21 -99 41 -111 5 -4 9 -16 9 -28 0 -16 3 -18 12 -9 7 7
22 12 34 12 36 0 92 28 110 55 9 13 20 40 24 60 7 32 6 35 -15 35 -19 0 -27
10 -42 57 -11 31 -23 58 -29 59 -5 2 -22 -4 -39 -13z"/>
<path d="M2008 1372 c-27 -27 -48 -53 -48 -58 0 -5 -9 -15 -20 -22 -20 -12
-28 -52 -10 -52 6 0 10 -9 10 -20 0 -13 -9 -22 -26 -26 -26 -7 -26 -8 -21 -70
6 -78 -5 -82 -49 -19 -34 49 -102 108 -115 99 -5 -3 -18 0 -30 6 -17 10 -23 8
-35 -7 -29 -38 -10 -172 30 -211 17 -16 17 -13 16 58 -1 41 -2 84 -1 95 l2 20
15 -20 c8 -11 13 -28 10 -38 -6 -24 13 -138 26 -154 6 -7 26 -13 44 -13 33 0
34 -1 34 -39 0 -31 4 -40 21 -44 11 -3 23 -15 26 -27 4 -15 10 -19 22 -14 9 3
23 8 32 11 11 3 16 17 16 46 0 50 12 97 24 97 5 0 15 15 23 34 8 19 23 37 35
41 11 3 23 16 27 28 8 26 22 37 47 37 25 0 22 -40 -4 -47 -15 -4 -19 -11 -14
-27 3 -11 8 -35 11 -51 5 -28 9 -30 45 -30 21 0 39 3 39 7 0 5 11 6 25 2 40
-10 93 29 101 74 4 20 10 42 14 47 5 6 11 27 15 48 4 20 11 40 16 43 14 8 10
44 -5 44 -7 0 -27 3 -44 6 -26 5 -32 2 -43 -22 -20 -39 -39 -42 -39 -6 0 21
-6 31 -20 35 -12 3 -20 14 -20 27 0 30 -101 160 -124 160 -6 0 -32 -22 -58
-48z"/>
<path d="M3433 1399 c-53 -20 -50 -92 7 -135 21 -16 46 -41 57 -57 10 -15 28
-34 41 -43 22 -15 23 -14 48 40 25 55 25 56 7 83 -10 16 -29 49 -42 75 -21 43
-26 47 -60 46 -20 0 -46 -4 -58 -9z"/>
<path d="M3955 1368 c-2 -7 -6 -73 -9 -146 l-5 -132 96 -45 c53 -25 106 -45
118 -45 32 0 65 40 65 79 0 25 -16 54 -65 119 -36 48 -65 93 -65 99 0 7 -4 13
-10 13 -5 0 -24 16 -41 35 -33 35 -76 47 -84 23z"/>
<path d="M3278 1281 c-7 -2 -18 -11 -24 -19 -9 -12 -4 -21 20 -43 28 -25 29
-28 12 -35 -15 -6 -14 -9 14 -20 38 -17 30 -36 -14 -33 -51 3 -76 0 -76 -11 0
-5 20 -10 45 -10 26 0 61 -8 82 -20 51 -27 64 -25 91 15 21 30 23 38 12 69 -6
19 -18 40 -27 48 -28 23 -121 64 -135 59z"/>
<path d="M1432 1230 c-18 -17 -39 -30 -47 -30 -8 0 -15 -2 -15 -5 0 -16 96
-168 111 -176 33 -17 67 -11 72 14 4 21 4 21 6 1 0 -11 10 -29 21 -39 18 -16
20 -16 26 -1 3 9 3 54 -1 100 -7 89 -26 126 -64 126 -10 0 -30 9 -44 20 -14
11 -27 20 -29 20 -1 0 -18 -14 -36 -30z"/>
<path d="M0 1120 c0 -91 3 -110 15 -110 8 0 15 -6 15 -14 0 -8 -7 -16 -15 -20
-9 -3 -15 -18 -15 -36 0 -23 5 -30 19 -30 10 0 32 -7 47 -15 42 -22 77 -18
109 10 19 19 36 25 58 23 23 -2 34 2 42 18 6 12 16 28 22 36 16 18 5 31 -37
48 -44 17 -51 28 -44 61 4 20 0 28 -13 32 -10 4 -30 16 -45 28 -32 26 -45 21
-27 -10 17 -26 4 -39 -21 -23 -11 7 -32 12 -47 12 -24 1 -25 2 -11 11 16 9 17
12 2 34 -10 15 -12 25 -5 30 21 12 11 25 -19 25 l-30 0 0 -110z"/>
<path d="M2857 1201 c-67 -39 -83 -56 -68 -74 6 -8 11 -19 10 -23 -1 -5 -1
-16 0 -23 1 -12 4 -12 13 -3 25 25 37 13 40 -40 2 -33 8 -53 17 -56 10 -3 12
0 8 12 -8 19 -1 20 42 5 27 -10 40 -8 92 15 33 14 75 37 94 51 l33 26 -43 43
c-59 61 -118 96 -157 95 -18 -1 -55 -13 -81 -28z"/>
<path d="M5068 1081 c-27 -30 -53 -72 -63 -101 -13 -38 -22 -50 -37 -50 -10 0
-26 -6 -34 -14 -21 -22 3 -32 26 -11 15 14 29 15 77 9 32 -3 61 -12 65 -18 15
-23 19 6 16 119 l-3 119 -47 -53z"/>
<path d="M4480 1061 c-14 -4 -29 -17 -35 -29 -5 -12 -17 -22 -26 -22 -9 0 -36
-20 -61 -45 -44 -43 -46 -47 -35 -76 9 -21 17 -29 30 -25 12 3 17 -1 15 -12
-2 -13 6 -18 35 -20 20 -2 37 -7 37 -13 0 -5 5 -9 10 -9 6 0 10 7 10 15 0 8 5
15 10 15 17 0 11 -22 -12 -41 -20 -18 -21 -20 -3 -39 24 -26 65 -27 65 -1 0
10 9 21 20 24 12 3 20 14 20 26 0 14 6 21 19 21 11 0 23 5 26 10 3 6 1 10 -6
10 -7 0 -3 9 9 20 12 11 26 20 31 20 11 0 44 61 36 68 -2 3 -13 -6 -24 -19
-11 -13 -23 -21 -27 -17 -4 4 -1 14 5 22 16 20 22 88 7 83 -6 -2 -10 -13 -8
-24 3 -21 -22 -38 -40 -27 -5 4 -8 19 -4 34 3 17 0 32 -7 38 -18 14 -68 21
-97 13z"/>
<path d="M4908 1048 c-2 -18 -11 -24 -37 -28 -20 -3 -39 -13 -45 -25 -6 -11
-15 -23 -19 -26 -5 -3 -9 -10 -9 -15 -1 -5 -9 -8 -20 -6 -27 5 -68 -45 -82
-102 -4 -15 -10 -26 -13 -22 -7 7 -33 -13 -33 -25 0 -12 37 -11 45 1 4 6 10 8
15 5 13 -8 50 13 50 28 0 7 13 18 28 24 15 7 48 33 72 58 25 24 52 45 60 45
12 0 12 2 1 13 -11 10 -14 10 -18 0 -3 -7 -15 -13 -29 -13 -20 0 -22 3 -15 23
6 16 16 21 34 19 23 -2 35 15 38 55 1 20 -20 11 -23 -9z"/>
<path d="M3161 1046 c-7 -8 -28 -20 -47 -26 -26 -9 -34 -17 -34 -35 0 -13 -4
-27 -10 -30 -5 -3 -10 -15 -10 -26 0 -20 -15 -26 -25 -9 -9 15 -25 12 -25 -5
0 -11 10 -15 33 -15 17 0 46 -2 63 -6 23 -4 47 2 94 26 60 31 150 97 150 111
0 3 -24 9 -52 12 -29 4 -69 9 -88 13 -26 4 -39 2 -49 -10z"/>
<path d="M0 766 c0 -31 5 -46 16 -50 9 -3 12 -11 8 -18 -5 -8 -2 -9 9 -5 9 3
19 2 22 -3 4 -6 1 -10 -4 -10 -6 0 -11 -6 -11 -14 0 -9 -7 -12 -20 -9 -17 4
-20 0 -20 -25 0 -24 5 -31 27 -37 16 -3 45 -18 67 -33 l38 -26 18 21 c13 17
27 21 63 20 30 -1 52 3 61 13 14 13 11 20 -26 59 -38 40 -41 46 -31 72 16 43
-11 64 -72 55 -37 -6 -53 -3 -81 13 -54 32 -64 28 -64 -23z"/>
<path d="M4835 750 c-3 -5 -14 -10 -24 -10 -29 0 -45 -25 -31 -49 8 -16 8 -21
-1 -21 -7 0 -20 -6 -28 -13 -9 -8 -35 -19 -58 -26 -63 -17 -59 -45 19 -135 33
-39 69 -77 80 -84 10 -7 18 -23 18 -36 0 -21 17 -46 31 -46 6 0 1 27 -17 90
-7 25 -7 25 14 6 12 -11 22 -29 22 -40 0 -12 7 -30 15 -40 15 -20 19 -16 16
16 -3 24 39 63 64 60 11 -1 25 1 30 5 25 18 55 68 55 89 0 29 14 30 40 4 11
-11 25 -20 32 -20 9 0 9 3 0 12 -15 15 -16 58 -2 58 6 0 10 32 10 75 l0 75
-29 0 c-16 0 -57 9 -92 19 -71 21 -154 27 -164 11z"/>
<path d="M1180 650 c-119 -12 -197 -37 -193 -61 9 -52 19 -78 42 -102 23 -25
27 -26 38 -11 6 9 16 13 22 9 15 -9 14 -32 -1 -38 -7 -2 -10 -8 -6 -12 4 -4
14 -2 22 4 8 7 41 13 72 13 61 1 74 6 146 56 28 19 48 41 50 54 2 13 11 24 22
26 11 3 16 0 12 -7 -4 -6 -3 -11 2 -11 6 0 12 7 16 15 4 10 -6 17 -37 25 -23
6 -47 17 -52 25 -15 19 -67 24 -155 15z"/>
<path d="M3772 596 c-12 -24 -22 -52 -22 -63 0 -12 -8 -23 -20 -26 -11 -3 -20
-10 -20 -16 0 -36 128 23 160 74 32 51 24 69 -31 73 -45 2 -46 1 -67 -42z"/>
<path d="M212 538 c-17 -17 -15 -53 4 -69 8 -7 27 -35 40 -62 20 -38 29 -48
45 -44 15 4 19 0 19 -17 0 -37 -30 -55 -97 -58 -61 -3 -70 -12 -28 -28 23 -9
100 5 121 22 16 12 24 70 12 85 -5 6 -8 33 -6 60 3 44 5 48 28 48 35 0 33 32
-3 59 -27 20 -29 20 -41 4 -12 -17 -48 -15 -72 3 -6 5 -16 3 -22 -3z"/>
<path d="M1495 529 c-4 -5 -5 -26 -3 -47 3 -33 0 -37 -22 -40 -14 -1 -51 -10
-83 -19 -70 -20 -102 -56 -92 -103 8 -36 14 -37 49 -9 17 13 26 29 24 42 -2
15 3 23 16 25 14 3 17 0 13 -12 -9 -22 2 -46 20 -46 10 0 13 6 9 16 -3 8 3 25
14 36 11 12 20 27 20 34 0 6 12 19 26 29 19 12 29 14 39 5 20 -17 25 1 13 47
-10 41 -32 62 -43 42z"/>
<path d="M4379 521 c-1 -3 -2 -11 -3 -18 0 -6 -14 -27 -29 -47 -24 -30 -33
-34 -57 -29 -17 3 -41 -1 -59 -10 -36 -18 -49 -7 -21 18 11 10 20 22 20 26 0
13 -74 -3 -83 -18 -12 -19 -26 -16 -21 5 3 11 -4 21 -22 29 -33 15 -47 8 -32
-16 6 -11 8 -26 3 -37 -6 -15 -8 -16 -12 -4 -13 43 -36 81 -43 74 -4 -5 -13
-25 -19 -45 -6 -20 -21 -46 -32 -57 -17 -19 -19 -30 -13 -82 4 -33 13 -65 20
-71 8 -6 14 -8 14 -5 0 4 14 -8 30 -26 17 -18 30 -36 30 -40 0 -5 5 -8 11 -8
8 0 10 25 7 85 -4 51 -2 88 4 91 5 4 8 19 6 34 -3 22 0 30 16 34 30 8 41 -9
17 -26 -21 -15 -21 -17 -7 -84 16 -76 20 -90 48 -152 10 -23 23 -40 28 -37 6
4 10 -1 10 -11 0 -9 5 -34 11 -55 l12 -38 209 -1 c116 0 208 3 206 7 -2 4 -16
32 -32 62 -35 68 -41 169 -12 214 29 43 15 82 -52 146 -32 31 -67 63 -78 72
-22 17 -73 31 -75 20z"/>
<path d="M440 430 c-28 -39 -22 -53 35 -88 25 -15 45 -29 45 -32 -1 -3 -26
-24 -57 -47 -56 -42 -56 -42 -85 -25 -25 15 -30 15 -38 2 -5 -8 -10 -29 -10
-45 0 -17 -7 -41 -16 -53 -24 -34 -14 -54 28 -59 29 -3 46 3 80 27 60 42 139
70 161 56 29 -19 50 15 55 87 3 54 0 72 -22 115 -27 53 -42 64 -52 37 -7 -18
-24 -20 -24 -2 0 10 -61 57 -74 57 -3 0 -14 -14 -26 -30z"/>
<path d="M2831 439 c-14 -9 -32 -23 -39 -32 -8 -9 -20 -13 -28 -10 -12 4 -114
-61 -122 -79 -11 -24 -97 -118 -108 -118 -7 0 -24 11 -38 25 -27 27 -56 33
-56 13 0 -7 -6 -25 -14 -40 -14 -27 -14 -27 15 -21 19 3 29 1 29 -6 0 -6 12
-16 26 -21 29 -11 80 12 89 40 8 27 87 80 117 80 24 0 27 -3 19 -18 -5 -9 -19
-26 -31 -37 -45 -40 -95 -145 -69 -145 5 0 9 6 9 14 0 9 8 12 26 8 17 -3 33 3
49 18 47 44 35 13 -15 -39 -27 -29 -50 -56 -50 -62 0 -5 32 -9 70 -9 62 0 70
2 70 19 0 11 10 32 23 48 13 15 30 44 37 63 8 19 17 37 21 40 4 3 1 41 -7 85
-7 44 -14 81 -14 83 0 1 6 1 13 0 8 -2 11 8 9 29 -3 39 23 73 56 73 13 0 20 4
17 10 -9 14 -73 8 -104 -11z"/>
<path d="M3445 418 c-2 -7 -14 -44 -25 -83 -12 -38 -26 -80 -31 -93 -9 -22
-10 -23 -33 -5 -14 10 -30 28 -37 41 -7 12 -17 22 -23 22 -6 0 -24 16 -39 35
-30 37 -47 45 -47 20 0 -8 -14 -24 -31 -34 -17 -10 -46 -41 -64 -68 -18 -26
-40 -55 -49 -62 -14 -12 -16 -10 -16 15 0 36 63 117 110 143 40 21 46 44 13
49 -16 2 -26 -5 -39 -30 -9 -18 -24 -40 -33 -49 -63 -62 -74 -82 -76 -138 -1
-31 -5 -68 -9 -83 -5 -15 -3 -35 4 -48 9 -16 9 -25 -1 -36 -10 -12 41 -14 401
-14 388 1 412 2 397 18 -8 9 -22 32 -31 50 -9 18 -23 41 -31 50 -8 9 -25 33
-38 52 -12 19 -35 41 -50 48 -19 9 -27 21 -27 38 0 17 -9 30 -30 42 -16 9 -30
20 -30 23 0 13 -62 71 -96 89 -26 15 -36 17 -39 8z"/>
<path d="M1232 388 c-6 -6 -22 -13 -34 -14 -166 -22 -178 -29 -168 -104 8 -63
18 -73 69 -72 39 1 71 19 71 40 0 5 9 12 20 15 12 3 20 14 20 25 0 25 19 39
30 23 10 -16 25 5 33 45 8 43 -16 67 -41 42z"/>
<path d="M1584 376 c-3 -9 -12 -16 -20 -16 -8 0 -14 -4 -14 -10 0 -5 5 -10 10
-10 7 0 10 -22 8 -57 l-3 -58 -42 2 c-24 1 -43 -2 -43 -8 0 -5 4 -9 10 -9 6 0
5 -10 -2 -25 -6 -14 -14 -25 -17 -25 -8 0 -41 59 -41 74 0 17 -24 66 -32 66
-4 0 -28 -18 -53 -40 -25 -22 -56 -40 -68 -40 -27 0 -77 -48 -77 -73 0 -26 37
-85 60 -97 10 -6 32 -10 49 -10 24 0 31 -4 31 -19 0 -19 9 -20 216 -20 227 -1
227 -1 253 47 12 22 41 31 41 12 0 -5 5 -10 10 -10 6 0 10 12 10 27 0 20 3 24
12 15 6 -6 11 -25 10 -43 l-1 -31 25 33 c16 23 20 35 13 40 -7 4 -9 19 -6 37
6 30 -15 62 -41 62 -19 0 -25 21 -11 46 13 26 6 36 -45 65 -17 10 -18 9 -13
-22 5 -26 4 -30 -4 -16 -5 9 -16 17 -24 17 -8 0 -18 7 -23 16 -8 14 -14 13
-51 -12 l-42 -27 -24 25 c-13 14 -27 42 -30 62 -8 41 -22 55 -31 32z"/>
<path d="M0 181 l0 -181 69 0 68 0 6 49 c3 27 3 57 1 68 -6 23 -63 53 -98 53
-20 0 -36 16 -36 36 0 2 27 4 60 4 89 0 89 13 5 115 -11 13 -32 27 -47 31
l-28 6 0 -181z"/>
<path d="M774 133 c-29 -45 -56 -65 -81 -58 -26 6 -88 -22 -117 -54 l-19 -21
111 0 112 0 0 26 c0 14 4 33 9 42 14 27 23 92 13 92 -6 0 -18 -12 -28 -27z"/>
</g>
</svg>
